%FSLAX25Y25*%
%MOIN*%
G70*
G01*
G75*
G04 Layer_Color=16711935*
%ADD10R,0.03543X0.04724*%
%ADD11R,0.07087X0.01063*%
%ADD12R,0.04724X0.03543*%
%ADD13R,0.01693X0.07087*%
%ADD14R,0.04331X0.05906*%
%ADD15R,0.06890X0.05512*%
%ADD16R,0.01969X0.09843*%
%ADD17R,0.07874X0.09843*%
%ADD18R,0.07874X0.11811*%
%ADD19R,0.03150X0.07087*%
%ADD20R,0.06890X0.02165*%
%ADD21R,0.02165X0.06890*%
%ADD22R,0.02165X0.09843*%
%ADD23R,0.09843X0.02165*%
%ADD24R,0.09843X0.06299*%
%ADD25R,0.08268X0.01575*%
%ADD26R,0.08661X0.07874*%
%ADD27R,0.03937X0.02362*%
%ADD28R,0.15748X0.11024*%
%ADD29C,0.01969*%
%ADD30C,0.07874*%
%ADD31C,0.03937*%
%ADD32C,0.01575*%
%ADD33C,0.02953*%
%ADD34C,0.00984*%
%ADD35C,0.03150*%
%ADD36C,0.05906*%
%ADD37C,0.01181*%
%ADD38R,0.05906X0.16339*%
%ADD39R,0.06221X0.09764*%
%ADD40R,0.07677X0.05827*%
%ADD41R,0.07559X0.04646*%
%ADD42R,0.08268X0.06732*%
%ADD43R,0.07323X0.04764*%
%ADD44R,0.08307X0.06654*%
%ADD45R,0.07126X0.03071*%
%ADD46R,0.07126X0.02992*%
%ADD47R,0.07087X0.03543*%
%ADD48R,0.03228X0.07126*%
%ADD49C,0.08032*%
%ADD50R,0.08032X0.08032*%
%ADD51R,0.05906X0.05906*%
%ADD52C,0.05906*%
%ADD53C,0.03543*%
%ADD54C,0.07087*%
%ADD55C,0.02362*%
%ADD56R,0.06299X0.02362*%
%ADD57R,0.09488X0.23622*%
%ADD58R,0.07874X0.08661*%
%ADD59C,0.02362*%
%ADD60C,0.00787*%
%ADD61C,0.01000*%
D10*
X178150Y165764D02*
D03*
Y158283D02*
D03*
X214370Y145693D02*
D03*
Y153173D02*
D03*
D26*
X166378Y149488D02*
D03*
Y162087D02*
D03*
D49*
X25630Y27992D02*
D03*
Y37992D02*
D03*
Y47992D02*
D03*
Y57992D02*
D03*
X35630Y27992D02*
D03*
Y37992D02*
D03*
Y47992D02*
D03*
Y57992D02*
D03*
Y67992D02*
D03*
D50*
X25630D02*
D03*
D51*
X133661Y158150D02*
D03*
X77047Y142165D02*
D03*
D52*
X133661Y148150D02*
D03*
X123661Y158150D02*
D03*
Y148150D02*
D03*
X113661Y158150D02*
D03*
Y148150D02*
D03*
X67047Y142165D02*
D03*
D53*
X138031Y17244D02*
D03*
X155354D02*
D03*
D54*
X188858Y68858D02*
D03*
Y49173D02*
D03*
D56*
X185158Y148307D02*
D03*
Y153307D02*
D03*
Y158307D02*
D03*
Y163307D02*
D03*
X206614Y148307D02*
D03*
Y153307D02*
D03*
Y158307D02*
D03*
Y163307D02*
D03*
D57*
X195886Y155807D02*
D03*
D58*
X185158Y136063D02*
D03*
X197756D02*
D03*
M02*
