%FSLAX25Y25*%
%MOIN*%
G70*
G01*
G75*
G04 Layer_Physical_Order=1*
G04 Layer_Color=255*
%ADD10R,0.15748X0.11024*%
%ADD11R,0.03937X0.02362*%
%ADD12R,0.08661X0.07874*%
%ADD13R,0.03543X0.04724*%
%ADD14R,0.08268X0.01575*%
%ADD15R,0.04724X0.03543*%
%ADD16R,0.09843X0.06299*%
%ADD17R,0.09843X0.02165*%
%ADD18R,0.02165X0.09843*%
%ADD19R,0.02165X0.06890*%
%ADD20R,0.06890X0.02165*%
%ADD21R,0.03150X0.07087*%
%ADD22R,0.07874X0.11811*%
%ADD23R,0.07874X0.09843*%
%ADD24R,0.01969X0.09843*%
%ADD25R,0.06890X0.05512*%
%ADD26R,0.04331X0.05906*%
%ADD27R,0.01693X0.07087*%
%ADD28R,0.07087X0.01063*%
%ADD29C,0.03937*%
%ADD30C,0.07874*%
%ADD31C,0.01969*%
%ADD32C,0.05906*%
%ADD33C,0.03150*%
%ADD34C,0.01181*%
%ADD35C,0.01575*%
%ADD36C,0.00984*%
%ADD37C,0.02953*%
%ADD38R,0.03228X0.07126*%
%ADD39R,0.07087X0.03543*%
%ADD40R,0.07126X0.02992*%
%ADD41R,0.07126X0.03071*%
%ADD42R,0.08307X0.06654*%
%ADD43R,0.07323X0.04764*%
%ADD44R,0.08268X0.06732*%
%ADD45R,0.07559X0.04646*%
%ADD46R,0.07677X0.05827*%
%ADD47R,0.06221X0.09764*%
%ADD48R,0.05906X0.16339*%
%ADD49C,0.07087*%
%ADD50C,0.03543*%
%ADD51C,0.05906*%
%ADD52R,0.05906X0.05906*%
%ADD53C,0.08032*%
%ADD54R,0.08032X0.08032*%
%ADD55C,0.02362*%
G36*
X93776Y69311D02*
X93775D01*
X93776Y69311D01*
X93972D01*
D01*
X94045Y69311D01*
Y64180D01*
X93923Y64129D01*
X93265Y63624D01*
X92761Y62966D01*
X92443Y62200D01*
X92335Y61378D01*
X92443Y60556D01*
X92761Y59790D01*
X93265Y59132D01*
X93923Y58627D01*
X94690Y58309D01*
X95512Y58201D01*
X96334Y58309D01*
X97100Y58627D01*
X97758Y59132D01*
X98263Y59790D01*
X98353Y60008D01*
X99129Y60784D01*
X99129Y60784D01*
X99503Y61270D01*
X99976Y61110D01*
Y60158D01*
Y57008D01*
Y53858D01*
X99976Y53858D01*
X99976Y53661D01*
X99976D01*
Y47559D01*
Y44810D01*
X99514Y44619D01*
X92657Y51476D01*
X92040Y51949D01*
X91322Y52247D01*
X90551Y52348D01*
X89387D01*
X89169Y52439D01*
X88346Y52547D01*
X87524Y52439D01*
X86758Y52121D01*
X86100Y51616D01*
X85595Y50959D01*
X85278Y50192D01*
X85170Y49370D01*
X85278Y48548D01*
X85305Y48483D01*
X85039Y48137D01*
X84217Y48029D01*
X83451Y47712D01*
X82793Y47207D01*
X82288Y46549D01*
X81971Y45783D01*
X81863Y44961D01*
X81971Y44138D01*
X81725Y43712D01*
X81619Y43698D01*
X80853Y43381D01*
X80195Y42876D01*
X79690Y42218D01*
X79372Y41452D01*
X79264Y40630D01*
X79372Y39808D01*
X79690Y39042D01*
X79985Y38657D01*
X79764Y38209D01*
X78224D01*
D01*
D01*
X78224Y38209D01*
X78027D01*
Y38209D01*
X68874D01*
Y41260D01*
Y44409D01*
Y47559D01*
Y50709D01*
Y53858D01*
Y57008D01*
Y60158D01*
Y63307D01*
Y66457D01*
Y69311D01*
X93776D01*
Y69311D01*
D02*
G37*
G36*
X198583Y63975D02*
Y61520D01*
Y59628D01*
X198487Y59398D01*
X198352Y58370D01*
Y56063D01*
X198189D01*
Y46220D01*
X208849D01*
X209040Y45759D01*
X207534Y44252D01*
X198189D01*
Y43021D01*
X197581Y42770D01*
X196759Y42139D01*
X195476Y40855D01*
X194844Y40033D01*
X194448Y39075D01*
X194313Y38047D01*
Y35731D01*
X193972Y35686D01*
X193015Y35289D01*
X192254Y34706D01*
X191806Y34927D01*
Y39567D01*
X191670Y40595D01*
X191274Y41552D01*
X190642Y42375D01*
X189820Y43006D01*
X189367Y43194D01*
X189432Y43689D01*
X190297Y43803D01*
X191638Y44359D01*
X192789Y45242D01*
X193673Y46393D01*
X194228Y47734D01*
X194418Y49173D01*
X194228Y50612D01*
X193673Y51953D01*
X192789Y53104D01*
X191638Y53988D01*
X190297Y54543D01*
X188858Y54733D01*
X187419Y54543D01*
X186079Y53988D01*
X185916Y53863D01*
X185467Y54084D01*
Y63948D01*
X185916Y64169D01*
X186079Y64044D01*
X187419Y63488D01*
X188858Y63299D01*
X190297Y63488D01*
X191638Y64044D01*
X192789Y64927D01*
X193673Y66079D01*
X194228Y67419D01*
X194260Y67663D01*
X194734Y67824D01*
X198583Y63975D01*
D02*
G37*
G36*
X178248Y108634D02*
X179173Y108513D01*
X183953D01*
X184727Y108615D01*
X185103Y108285D01*
Y101811D01*
X184346D01*
Y96063D01*
X177244D01*
Y98721D01*
Y101870D01*
Y105020D01*
Y108600D01*
X177660Y108878D01*
X178248Y108634D01*
D02*
G37*
G36*
X152955Y20117D02*
X152687Y19912D01*
X152087Y19130D01*
X151710Y18221D01*
X151582Y17244D01*
X151710Y16268D01*
X152087Y15358D01*
X152238Y15162D01*
X152016Y14714D01*
X141369D01*
X141148Y15162D01*
X141298Y15358D01*
X141675Y16268D01*
X141804Y17244D01*
X141675Y18221D01*
X141298Y19130D01*
X140699Y19912D01*
X140584Y20000D01*
X140745Y20473D01*
X141024D01*
X141613Y20591D01*
X152794D01*
X152955Y20117D01*
D02*
G37*
G36*
X49645Y43528D02*
X47625Y41509D01*
X46994Y40686D01*
X46597Y39729D01*
X46462Y38701D01*
Y18356D01*
X45972Y18258D01*
X45783Y18714D01*
X45278Y19372D01*
X44620Y19877D01*
X43854Y20195D01*
X43031Y20303D01*
X42209Y20195D01*
X41991Y20104D01*
X37730D01*
X36248Y21586D01*
X36417Y22056D01*
X36803Y22095D01*
X37931Y22437D01*
X38971Y22992D01*
X39882Y23740D01*
X40630Y24651D01*
X41185Y25691D01*
X41528Y26819D01*
X41643Y27992D01*
X41528Y29165D01*
X41185Y30293D01*
X40630Y31333D01*
X39882Y32244D01*
X38971Y32992D01*
X38971Y32992D01*
X38971D01*
Y32992D01*
D01*
X39882Y33740D01*
X40630Y34651D01*
X41185Y35691D01*
X41528Y36819D01*
X41643Y37992D01*
X41528Y39165D01*
X41408Y39559D01*
X45840Y43990D01*
X49453D01*
X49645Y43528D01*
D02*
G37*
G36*
X130886Y67765D02*
Y64764D01*
X140408D01*
Y60368D01*
X139272Y59232D01*
X138799Y58615D01*
X138672Y58309D01*
X138524Y57953D01*
X137835D01*
Y46929D01*
X138400D01*
Y40376D01*
X137984Y40098D01*
X137799Y40174D01*
X136772Y40310D01*
X136727D01*
Y43055D01*
X136592Y44083D01*
X136496Y44313D01*
Y46205D01*
Y49385D01*
X136560Y49539D01*
X136695Y50567D01*
X136560Y51595D01*
X136496Y51749D01*
Y54866D01*
X129724D01*
Y54898D01*
X122244D01*
Y51825D01*
X122149Y51595D01*
X122013Y50567D01*
X122149Y49539D01*
X122244Y49309D01*
Y46236D01*
X129016D01*
Y46205D01*
Y44313D01*
X128920Y44083D01*
X128785Y43055D01*
Y40231D01*
X124602D01*
X124175Y40559D01*
X122978Y41054D01*
X121693Y41224D01*
X121116Y41148D01*
X120763Y41501D01*
X120861Y42244D01*
Y47465D01*
X120725Y48492D01*
X120630Y48723D01*
Y51795D01*
X113756D01*
Y53661D01*
D01*
Y53661D01*
X113756Y53661D01*
Y53858D01*
X113756D01*
Y57008D01*
Y60158D01*
Y60230D01*
X121280D01*
X122050Y60332D01*
X122558Y60542D01*
X122769Y60629D01*
X123385Y61103D01*
X129284Y67001D01*
X129502Y67091D01*
X130160Y67596D01*
X130412Y67926D01*
X130886Y67765D01*
D02*
G37*
G36*
X29866Y106457D02*
Y101294D01*
X24913D01*
X23607Y102599D01*
X23521Y103256D01*
X23425Y103487D01*
Y105378D01*
Y111661D01*
X23442Y111667D01*
X23661D01*
X24432Y111769D01*
X24940Y111979D01*
X25150Y112066D01*
X25536Y112362D01*
X29866D01*
Y106457D01*
D02*
G37*
G36*
X130886Y111122D02*
X122126D01*
Y111049D01*
X116667D01*
X114581Y113135D01*
X114772Y113597D01*
X130886D01*
Y111122D01*
D02*
G37*
G36*
X214368Y171617D02*
X215182Y170094D01*
X216278Y168758D01*
X217613Y167663D01*
X219136Y166849D01*
X219992Y166589D01*
Y7899D01*
X219136Y7639D01*
X217613Y6825D01*
X216278Y5730D01*
X215182Y4395D01*
X214368Y2871D01*
X214109Y2015D01*
X169921D01*
Y8489D01*
X169950Y8779D01*
Y27480D01*
X169921Y27770D01*
Y34370D01*
X158110D01*
Y27770D01*
X158082Y27480D01*
Y20431D01*
X157633Y20210D01*
X157240Y20511D01*
X156331Y20888D01*
X155354Y21016D01*
X154378Y20888D01*
X153468Y20511D01*
X153364Y20431D01*
X152868Y20496D01*
X152795Y20591D01*
D01*
X152795Y20591D01*
Y34370D01*
X150928D01*
X150737Y34832D01*
X150964Y35059D01*
X150964Y35059D01*
X151201Y35368D01*
X151437Y35676D01*
X151735Y36395D01*
X151837Y37165D01*
X151837Y37165D01*
Y46929D01*
X152402D01*
Y57953D01*
X151549D01*
X151437Y58221D01*
X151201Y58530D01*
X150964Y58838D01*
X150964Y58838D01*
X149514Y60289D01*
Y64764D01*
X155886D01*
X155886Y64764D01*
Y64764D01*
X155886D01*
X156083D01*
X156239Y64764D01*
X156239Y64764D01*
Y64764D01*
X156378D01*
X156555Y64338D01*
X157028Y63721D01*
X159110Y61638D01*
Y56417D01*
X167772D01*
Y63898D01*
X165275D01*
X164871Y64302D01*
X165062Y64764D01*
X168484D01*
Y73524D01*
X177244D01*
D01*
X177244D01*
X177525Y73243D01*
Y53520D01*
X172087D01*
Y50447D01*
X171991Y50217D01*
X171856Y49189D01*
X171991Y48161D01*
X172087Y47931D01*
Y44858D01*
X179567D01*
Y45218D01*
X184959D01*
X186079Y44359D01*
X187113Y43930D01*
X187048Y43434D01*
X186807Y43403D01*
X185849Y43006D01*
X185027Y42375D01*
X184396Y41552D01*
X183999Y40595D01*
X183864Y39567D01*
Y29213D01*
X183864Y29213D01*
X183864D01*
X183999Y28185D01*
X184396Y27227D01*
X185027Y26405D01*
X194889Y16543D01*
X195711Y15911D01*
X196669Y15515D01*
X197697Y15379D01*
X200307D01*
Y14626D01*
X211134D01*
Y24075D01*
X209735D01*
Y28110D01*
X210094D01*
Y34409D01*
X212362D01*
Y37849D01*
X217296Y42783D01*
X217296Y42783D01*
X217296Y42783D01*
X217927Y43605D01*
X218324Y44563D01*
X218459Y45591D01*
Y58402D01*
X218324Y59429D01*
X218228Y59660D01*
Y61551D01*
Y64624D01*
X218324Y64854D01*
X218459Y65882D01*
Y72835D01*
X218324Y73862D01*
X217927Y74820D01*
X217296Y75643D01*
X209580Y83359D01*
X208757Y83990D01*
X207799Y84387D01*
X206772Y84522D01*
X205744Y84387D01*
X204786Y83990D01*
X203964Y83359D01*
X203333Y82537D01*
X202936Y81579D01*
X202903Y81325D01*
X202441Y81134D01*
X202438Y81136D01*
X201481Y81533D01*
X200453Y81668D01*
X200297Y81647D01*
X199921Y81977D01*
Y83600D01*
X200017Y83830D01*
X200152Y84858D01*
X200017Y85886D01*
X199921Y86117D01*
Y89189D01*
X193008D01*
Y94331D01*
Y98194D01*
X203465D01*
Y96260D01*
X216063D01*
Y108071D01*
X203465D01*
Y106136D01*
X192251D01*
Y108937D01*
X197339D01*
Y115236D01*
X192251D01*
Y115993D01*
X193402D01*
X194327Y116115D01*
X195057Y116417D01*
X197339D01*
Y122716D01*
X195057D01*
X194327Y123019D01*
X193402Y123141D01*
X192314D01*
Y124134D01*
X192192Y125059D01*
X191835Y125921D01*
X191267Y126661D01*
X190527Y127229D01*
X189665Y127586D01*
X188740Y127708D01*
X188203Y127637D01*
X187982Y128085D01*
X190654Y130757D01*
X201586D01*
Y123661D01*
X201700Y122504D01*
X202037Y121390D01*
X202586Y120365D01*
X203324Y119465D01*
X204223Y118727D01*
X205249Y118179D01*
X206362Y117841D01*
X207162Y117763D01*
X207172Y117661D01*
X207510Y116548D01*
X208058Y115522D01*
X208796Y114623D01*
X209695Y113885D01*
X210721Y113337D01*
X211834Y112999D01*
X212992Y112885D01*
X214150Y112999D01*
X215263Y113337D01*
X216289Y113885D01*
X217188Y114623D01*
X217926Y115522D01*
X218475Y116548D01*
X218812Y117661D01*
X218926Y118819D01*
Y123661D01*
X218812Y124819D01*
X218475Y125932D01*
X217926Y126958D01*
X217188Y127857D01*
X216289Y128595D01*
X215263Y129144D01*
X214150Y129481D01*
X213454Y129550D01*
Y134331D01*
Y147716D01*
X213340Y148874D01*
X213002Y149987D01*
X212454Y151013D01*
X212283Y151221D01*
Y157795D01*
X192598D01*
Y142835D01*
X201586D01*
Y137905D01*
X189173D01*
X189173Y137905D01*
X188248Y137783D01*
X187386Y137426D01*
X186968Y137104D01*
X186646Y136858D01*
X186646Y136858D01*
X181426Y131637D01*
X180858Y130897D01*
X180501Y130035D01*
X180379Y129110D01*
Y123141D01*
X179291D01*
X178366Y123019D01*
X177504Y122662D01*
X176764Y122094D01*
X174599Y119929D01*
X174031Y119188D01*
X173674Y118327D01*
X173552Y117402D01*
Y114134D01*
X173674Y113209D01*
X174031Y112347D01*
X174599Y111607D01*
X174622Y111584D01*
X174430Y111122D01*
X168484D01*
Y119882D01*
X143641D01*
X143641Y119882D01*
Y119882D01*
X143484Y119882D01*
X143287D01*
Y119882D01*
X143199Y119882D01*
Y121535D01*
X144551D01*
Y129016D01*
X144191D01*
Y134189D01*
X144056Y135217D01*
X143776Y135894D01*
X143659Y136174D01*
X143028Y136997D01*
X143005Y137021D01*
X142182Y137652D01*
X141225Y138048D01*
X140197Y138184D01*
X139169Y138048D01*
X138211Y137652D01*
X137389Y137021D01*
X136758Y136198D01*
X136361Y135240D01*
X136226Y134213D01*
X136249Y134033D01*
Y129016D01*
X135890D01*
Y129004D01*
X135441Y128783D01*
X135092Y129050D01*
X134874Y129141D01*
X121640Y142375D01*
Y143210D01*
X122055Y143488D01*
X122377Y143355D01*
X123661Y143186D01*
X124946Y143355D01*
X126143Y143851D01*
X127171Y144640D01*
X127960Y145668D01*
X128411Y146757D01*
X128911D01*
X129363Y145668D01*
X130151Y144640D01*
X131179Y143851D01*
X132377Y143355D01*
X133661Y143186D01*
X134946Y143355D01*
X136143Y143851D01*
X137171Y144640D01*
X137960Y145668D01*
X138456Y146865D01*
X138625Y148150D01*
X138456Y149434D01*
X137960Y150631D01*
X137171Y151660D01*
X136143Y152448D01*
X134946Y152944D01*
X133661Y153113D01*
X133776Y153228D01*
X138583D01*
Y154179D01*
X140127D01*
X147997Y146308D01*
Y131260D01*
X148133Y130232D01*
X148530Y129274D01*
X149161Y128452D01*
X149983Y127821D01*
X150941Y127424D01*
X151969Y127289D01*
X152996Y127424D01*
X153954Y127821D01*
X154776Y128452D01*
X155408Y129274D01*
X155804Y130232D01*
X155939Y131260D01*
Y147953D01*
X155804Y148980D01*
X155640Y149377D01*
X155408Y149938D01*
X154776Y150761D01*
X144580Y160958D01*
X143757Y161589D01*
X142799Y161985D01*
X141772Y162121D01*
X138583D01*
Y163071D01*
X128740D01*
Y160030D01*
X128250Y159932D01*
X127960Y160632D01*
X127171Y161660D01*
X126143Y162448D01*
X124946Y162944D01*
X123661Y163113D01*
X122377Y162944D01*
X121179Y162448D01*
X120151Y161660D01*
X119363Y160632D01*
X118911Y159542D01*
X118411D01*
X117960Y160632D01*
X117171Y161660D01*
X116143Y162448D01*
X114946Y162944D01*
X113661Y163113D01*
X112377Y162944D01*
X111179Y162448D01*
X110152Y161660D01*
X109363Y160632D01*
X108867Y159434D01*
X108698Y158150D01*
X108867Y156865D01*
X109363Y155668D01*
X110152Y154640D01*
X111179Y153851D01*
X112377Y153355D01*
X113661Y153186D01*
X114326Y153273D01*
X115683Y151916D01*
Y141142D01*
X115683Y141142D01*
X115683D01*
X115785Y140371D01*
X116082Y139653D01*
X116556Y139036D01*
X130222Y125369D01*
X130031Y124907D01*
X108027D01*
X107835Y125369D01*
X108810Y126344D01*
X115827D01*
X116855Y126479D01*
X117812Y126876D01*
X118635Y127507D01*
X119266Y128330D01*
X119662Y129287D01*
X119798Y130315D01*
X119662Y131343D01*
X119266Y132300D01*
X118635Y133123D01*
X117812Y133754D01*
X116855Y134151D01*
X115827Y134286D01*
X107165D01*
X106138Y134151D01*
X105180Y133754D01*
X104357Y133123D01*
X101612Y130378D01*
X97362D01*
Y133567D01*
X91379D01*
X90947Y134214D01*
X90296Y134650D01*
X89527Y134802D01*
X82402D01*
X81634Y134650D01*
X80982Y134214D01*
X80753Y133871D01*
X80274Y134016D01*
Y137244D01*
X81968D01*
Y147087D01*
X72126D01*
Y144045D01*
X71636Y143948D01*
X71346Y144647D01*
X70557Y145675D01*
X69529Y146464D01*
X68332Y146960D01*
X67047Y147129D01*
X65763Y146960D01*
X64565Y146464D01*
X63537Y145675D01*
X62748Y144647D01*
X62253Y143450D01*
X62084Y142165D01*
X62253Y140881D01*
X62748Y139683D01*
X63537Y138655D01*
X64565Y137867D01*
X65763Y137371D01*
X67047Y137202D01*
X67866Y137310D01*
X69400Y135776D01*
X69208Y135314D01*
X65079D01*
X64311Y135161D01*
X63660Y134726D01*
X63224Y134075D01*
X63072Y133307D01*
Y132071D01*
X56693D01*
Y129616D01*
X55474Y128397D01*
X54917Y128324D01*
X53959Y127927D01*
X53137Y127296D01*
X52506Y126474D01*
X52109Y125516D01*
X51974Y124488D01*
X52109Y123460D01*
X52506Y122503D01*
X53137Y121680D01*
X53152Y121669D01*
X52991Y121195D01*
X43248D01*
X42220Y121060D01*
X41263Y120663D01*
X40440Y120032D01*
X38950Y118542D01*
X38488Y118734D01*
Y119843D01*
X38128D01*
Y128536D01*
X38359Y128767D01*
X38990Y129589D01*
X39387Y130547D01*
X39522Y131575D01*
Y131945D01*
X51142D01*
Y135017D01*
X51237Y135248D01*
X51372Y136276D01*
X51237Y137303D01*
X51142Y137534D01*
Y140606D01*
X39134D01*
Y142544D01*
X39308Y142964D01*
X39443Y143992D01*
Y145055D01*
X51142D01*
Y148127D01*
X51237Y148358D01*
X51372Y149386D01*
X51237Y150414D01*
X51142Y150644D01*
Y153717D01*
X37520D01*
Y153638D01*
X32829D01*
Y156575D01*
X32694Y157603D01*
X32297Y158560D01*
X31666Y159383D01*
X30844Y160014D01*
X29886Y160410D01*
X28858Y160546D01*
X27830Y160410D01*
X26873Y160014D01*
X26050Y159383D01*
X25878Y159382D01*
X25808Y159473D01*
X24983Y160101D01*
X24023Y160494D01*
X22995Y160625D01*
X21968Y160485D01*
X21012Y160084D01*
X20192Y159450D01*
X19564Y158624D01*
X19172Y157665D01*
X19041Y156637D01*
X19060Y151991D01*
X19200Y150964D01*
X19601Y150008D01*
X20235Y149188D01*
X20246Y149180D01*
X20244Y148464D01*
X19168D01*
X18820Y148730D01*
X17862Y149127D01*
X17126Y149224D01*
Y149622D01*
X4173D01*
Y146550D01*
X4078Y146319D01*
X3942Y145291D01*
X4078Y144264D01*
X4173Y144033D01*
Y140961D01*
X15550D01*
X15867Y140643D01*
Y139331D01*
X16020Y138563D01*
X16455Y137911D01*
X16914Y137604D01*
X16963Y137107D01*
X10657Y130800D01*
X10026Y129978D01*
X9629Y129020D01*
X9494Y127992D01*
Y127189D01*
X3228D01*
Y124117D01*
X3133Y123886D01*
X2998Y122858D01*
X3133Y121830D01*
X3228Y121600D01*
Y118528D01*
Y111047D01*
Y111046D01*
X3133Y110815D01*
X2998Y109787D01*
X3133Y108760D01*
X3228Y108529D01*
Y105457D01*
Y103565D01*
X3133Y103335D01*
X2998Y102307D01*
X3133Y101279D01*
X3228Y101049D01*
Y97976D01*
X15945D01*
Y97898D01*
X17077D01*
X20460Y94515D01*
D01*
X20460D01*
X20460Y94515D01*
X20460Y94515D01*
X20460D01*
D01*
X20460D01*
X20460Y94515D01*
Y94515D01*
X20460Y94515D01*
Y94515D01*
X21282Y93884D01*
X22240Y93487D01*
X23268Y93352D01*
X46260D01*
X47288Y93487D01*
X48245Y93884D01*
X49068Y94515D01*
X49089Y94543D01*
X49291D01*
X50011Y94638D01*
X50681Y94915D01*
X51257Y95357D01*
X51467Y95568D01*
X51929Y95376D01*
Y95098D01*
Y92539D01*
X54557D01*
Y87480D01*
X54675Y86581D01*
X54849Y86162D01*
X55022Y85743D01*
X55575Y85023D01*
X58510Y82088D01*
Y72559D01*
X55094D01*
Y70575D01*
X48740D01*
Y70215D01*
X46024D01*
X44996Y70080D01*
X44038Y69683D01*
X43216Y69052D01*
X42585Y68230D01*
X42188Y67272D01*
X42053Y66244D01*
X42188Y65216D01*
X42585Y64259D01*
X43216Y63436D01*
X44038Y62805D01*
X44996Y62408D01*
X46024Y62273D01*
X48740D01*
Y61913D01*
X55094D01*
Y60158D01*
Y57008D01*
Y53858D01*
Y50709D01*
Y49528D01*
X54646Y49307D01*
X54108Y49720D01*
X53342Y50037D01*
X52520Y50145D01*
X51697Y50037D01*
X51479Y49947D01*
X44606D01*
X44606Y49947D01*
X43835Y49845D01*
X43117Y49548D01*
X42500Y49074D01*
X42036Y48610D01*
X41566Y48779D01*
X41528Y49165D01*
X41185Y50293D01*
X40630Y51333D01*
X39882Y52244D01*
X38971Y52992D01*
X38971Y52992D01*
X38971D01*
Y52992D01*
D01*
X39882Y53740D01*
X40630Y54651D01*
X41185Y55691D01*
X41528Y56819D01*
X41643Y57992D01*
X41528Y59165D01*
X41185Y60293D01*
X40630Y61333D01*
X39882Y62244D01*
X38971Y62992D01*
X38971Y62992D01*
X38971D01*
Y62992D01*
D01*
X39882Y63740D01*
X40630Y64651D01*
X41185Y65691D01*
X41528Y66819D01*
X41643Y67992D01*
X41528Y69165D01*
X41185Y70293D01*
X40630Y71333D01*
X39882Y72244D01*
X38971Y72992D01*
X37931Y73548D01*
X36803Y73890D01*
X35630Y74005D01*
X34457Y73890D01*
X33329Y73548D01*
X32289Y72992D01*
X31378Y72244D01*
X30630Y71333D01*
X30074Y70293D01*
X29732Y69165D01*
X29617Y67992D01*
X29732Y66819D01*
X30074Y65691D01*
X30630Y64651D01*
X31378Y63740D01*
X31984Y63242D01*
Y62742D01*
X31378Y62244D01*
X30880Y61638D01*
X30380D01*
X29882Y62244D01*
X28971Y62992D01*
X27931Y63548D01*
X26803Y63890D01*
X25630Y64005D01*
X24457Y63890D01*
X23329Y63548D01*
X22289Y62992D01*
X21378Y62244D01*
X20630Y61333D01*
X20074Y60293D01*
X19732Y59165D01*
X19617Y57992D01*
X19732Y56819D01*
X20074Y55691D01*
X20630Y54651D01*
X21378Y53740D01*
X21984Y53242D01*
Y52742D01*
X21378Y52244D01*
X20630Y51333D01*
X20074Y50293D01*
X19732Y49165D01*
X19617Y47992D01*
X19732Y46819D01*
X20074Y45691D01*
X20630Y44651D01*
X21378Y43740D01*
X21984Y43242D01*
Y42742D01*
X21378Y42244D01*
X20630Y41333D01*
X20074Y40293D01*
X19732Y39165D01*
X19617Y37992D01*
X19732Y36819D01*
X20074Y35691D01*
X20630Y34651D01*
X21378Y33740D01*
X21984Y33242D01*
Y32742D01*
X21378Y32244D01*
X20630Y31333D01*
X20074Y30293D01*
X19732Y29165D01*
X19617Y27992D01*
X19732Y26819D01*
X20074Y25691D01*
X20630Y24651D01*
X21378Y23740D01*
X22289Y22992D01*
X23329Y22437D01*
X24457Y22095D01*
X25630Y21979D01*
X26803Y22095D01*
X27196Y22214D01*
X34390Y15020D01*
X34390Y15020D01*
X35007Y14547D01*
D01*
D01*
Y14547D01*
X35007Y14547D01*
D01*
D01*
X35007D01*
Y14547D01*
D01*
X35007D01*
Y14547D01*
X35725Y14249D01*
X36496Y14148D01*
X41991D01*
X42209Y14058D01*
X43031Y13949D01*
X43854Y14058D01*
X44620Y14375D01*
X45278Y14880D01*
X45783Y15538D01*
X45972Y15994D01*
X46462Y15896D01*
Y14488D01*
X46462Y14488D01*
X46462D01*
X46597Y13460D01*
X46994Y12503D01*
X47625Y11680D01*
X52409Y6897D01*
D01*
X52409D01*
X52409Y6897D01*
X52409Y6897D01*
X52409D01*
D01*
X52409D01*
X52409Y6897D01*
Y6897D01*
X52409Y6897D01*
Y6897D01*
X53231Y6266D01*
X54189Y5869D01*
X55035Y5758D01*
Y4587D01*
X68815D01*
Y14823D01*
X55714D01*
X54404Y16133D01*
Y36929D01*
X54820Y37207D01*
X55094Y37093D01*
Y34961D01*
X65626D01*
Y24429D01*
X70035D01*
Y14587D01*
Y4587D01*
X83815D01*
Y5734D01*
X85984D01*
Y5339D01*
X93464D01*
Y5339D01*
X93787Y5554D01*
X94405Y5298D01*
X95433Y5163D01*
X96461Y5298D01*
X97419Y5695D01*
X98241Y6326D01*
X98872Y7148D01*
X99269Y8106D01*
X99404Y9134D01*
Y12441D01*
X99269Y13469D01*
X98872Y14426D01*
X98241Y15249D01*
X97419Y15880D01*
X96461Y16277D01*
X95433Y16412D01*
X94405Y16277D01*
X93448Y15880D01*
X92625Y15249D01*
X91376Y14000D01*
X85984D01*
Y13676D01*
X83815D01*
Y14587D01*
Y24429D01*
X103224D01*
Y34961D01*
X112874D01*
X113095Y34512D01*
X112867Y34214D01*
X112371Y33017D01*
X112202Y31732D01*
Y28858D01*
Y25315D01*
X112371Y24030D01*
X112867Y22833D01*
X113655Y21805D01*
X114683Y21016D01*
X115881Y20520D01*
X117165Y20351D01*
X118450Y20520D01*
X119647Y21016D01*
X120675Y21805D01*
X121464Y22833D01*
X121960Y24030D01*
X122129Y25315D01*
Y28858D01*
Y29676D01*
X123003Y30550D01*
X123465Y30358D01*
Y27770D01*
X123436Y27480D01*
Y14577D01*
X117047D01*
Y14937D01*
X111535D01*
Y15094D01*
X104055D01*
Y12022D01*
X103960Y11791D01*
X103824Y10764D01*
X103960Y9736D01*
X104055Y9505D01*
Y6433D01*
X109567D01*
Y6276D01*
X117047D01*
Y6635D01*
X123465D01*
Y2015D01*
X7899D01*
X7639Y2871D01*
X6825Y4395D01*
X5730Y5730D01*
X4395Y6825D01*
X2871Y7639D01*
X2015Y7899D01*
Y166589D01*
X2871Y166849D01*
X4395Y167663D01*
X5730Y168758D01*
X6825Y170094D01*
X7639Y171617D01*
X7899Y172473D01*
X214109D01*
X214368Y171617D01*
D02*
G37*
G36*
X31653Y139583D02*
Y137691D01*
X31558Y137461D01*
X31423Y136433D01*
X31558Y135405D01*
X31580Y135352D01*
Y133220D01*
X31350Y132989D01*
X30718Y132167D01*
X30322Y131209D01*
X30187Y130181D01*
Y119843D01*
X28386D01*
Y130138D01*
X21879D01*
X21688Y130600D01*
X21763Y130675D01*
X23937D01*
X24965Y130810D01*
X25923Y131207D01*
X26745Y131838D01*
X28379Y133472D01*
X29010Y134294D01*
X29406Y135252D01*
X29542Y136279D01*
X29406Y137307D01*
X29483Y137421D01*
X30945D01*
Y139942D01*
X31653D01*
Y139583D01*
D02*
G37*
G36*
X80433Y126620D02*
Y125807D01*
Y124901D01*
Y123107D01*
X80395Y122913D01*
Y119921D01*
X80547Y119153D01*
X80982Y118502D01*
X81634Y118067D01*
X82402Y117914D01*
X83955D01*
X84146Y117452D01*
X83652Y116958D01*
X83179Y116341D01*
X83091Y116131D01*
X83022Y115965D01*
X79094D01*
Y110453D01*
Y107894D01*
X85016D01*
X85197Y107870D01*
X96653D01*
Y107102D01*
Y105211D01*
X96558Y104981D01*
X96423Y103953D01*
Y102150D01*
X95705D01*
X95630Y102164D01*
X91299D01*
Y103169D01*
X89465D01*
X89370Y103188D01*
X81063D01*
X80968Y103169D01*
X79094D01*
Y101375D01*
X79056Y101181D01*
Y94528D01*
X79094Y94334D01*
Y92539D01*
X80968D01*
X81063Y92520D01*
X89370D01*
X89465Y92539D01*
X91299D01*
Y93387D01*
X95630D01*
X96140Y93488D01*
X97528D01*
X97586Y93413D01*
X97755Y93283D01*
X100694Y90344D01*
X100503Y89882D01*
X98636D01*
X98406Y89977D01*
X97378Y90113D01*
X90724D01*
X89697Y89977D01*
X89466Y89882D01*
X86394D01*
Y83091D01*
X65626D01*
D01*
X65626D01*
X65459Y83258D01*
Y83527D01*
X65341Y84427D01*
X65167Y84846D01*
X64993Y85265D01*
X64441Y85984D01*
X61506Y88920D01*
Y92539D01*
X64134D01*
Y95098D01*
Y97658D01*
Y103169D01*
Y105335D01*
Y110846D01*
Y115487D01*
X65424Y116777D01*
X70213D01*
X71240Y116912D01*
X72198Y117309D01*
X73020Y117940D01*
X73651Y118763D01*
X74048Y119720D01*
X74072Y119902D01*
X74134D01*
Y120370D01*
X74183Y120748D01*
X74134Y121126D01*
Y121459D01*
X74393Y121493D01*
X75111Y121791D01*
X75728Y122264D01*
X79402Y125938D01*
X79875Y126555D01*
X79943Y126718D01*
X80433Y126620D01*
D02*
G37*
G36*
X113327Y105965D02*
X113327D01*
X113327Y105965D01*
X113327D01*
X113327Y105965D01*
Y105965D01*
X113327Y105965D01*
Y105965D01*
X113944Y105492D01*
X114662Y105194D01*
X115433Y105093D01*
X122126D01*
Y105020D01*
Y101870D01*
Y98721D01*
Y95571D01*
Y92421D01*
Y89272D01*
X122126Y89272D01*
X122126Y89075D01*
D01*
X122126Y89002D01*
X119567D01*
Y90339D01*
X112087D01*
Y87266D01*
X111991Y87036D01*
X111856Y86008D01*
Y84449D01*
Y81299D01*
X111991Y80272D01*
X112388Y79314D01*
X113019Y78491D01*
X113841Y77860D01*
X114799Y77464D01*
X115827Y77328D01*
X116855Y77464D01*
X117315Y77654D01*
X117616Y77453D01*
X117665Y76955D01*
X113268Y72559D01*
X103224D01*
Y82107D01*
X103640Y82385D01*
X103831Y82306D01*
X104858Y82171D01*
X105886Y82306D01*
X106117Y82402D01*
X109189D01*
Y89882D01*
X108829D01*
Y91795D01*
X108829Y91795D01*
X108829Y91795D01*
Y91795D01*
X108829D01*
X108829Y91795D01*
X108694Y92823D01*
X108413Y93500D01*
X108297Y93781D01*
X107666Y94603D01*
X104365Y97905D01*
Y103953D01*
X104229Y104981D01*
X104134Y105211D01*
Y107102D01*
Y108455D01*
X104960D01*
X105178Y108364D01*
X106000Y108256D01*
X106822Y108364D01*
X107588Y108682D01*
X108246Y109187D01*
X108751Y109845D01*
X108783Y109921D01*
X109273Y110019D01*
X113327Y105965D01*
D02*
G37*
G36*
X158140Y108607D02*
X157800Y108163D01*
X157483Y107397D01*
X157374Y106575D01*
X157483Y105753D01*
X157800Y104986D01*
X158305Y104329D01*
X158887Y103882D01*
X158664Y103342D01*
X158555Y102520D01*
X158664Y101698D01*
X158981Y100931D01*
X159486Y100273D01*
X159689Y100118D01*
X159754Y99622D01*
X159572Y99384D01*
X159254Y98618D01*
X159146Y97795D01*
X159254Y96973D01*
X159572Y96207D01*
X160076Y95549D01*
X160734Y95044D01*
X161501Y94727D01*
X162323Y94618D01*
X163145Y94727D01*
X163911Y95044D01*
X164569Y95549D01*
X165074Y96207D01*
X165164Y96425D01*
X165955Y97216D01*
X166417Y97025D01*
Y95571D01*
Y92421D01*
Y89272D01*
X166417Y89272D01*
X166417Y89075D01*
X166417D01*
Y85138D01*
X165927Y85041D01*
X165881Y85151D01*
X165376Y85809D01*
X164718Y86314D01*
X163952Y86632D01*
X163130Y86740D01*
X162308Y86632D01*
X161541Y86314D01*
X160884Y85809D01*
X160379Y85151D01*
X160061Y84385D01*
X159953Y83563D01*
X160061Y82741D01*
X160379Y81975D01*
X160569Y81726D01*
X160504Y81230D01*
X160391Y81144D01*
X159887Y80486D01*
X159569Y79720D01*
X159461Y78898D01*
X159569Y78075D01*
X159887Y77309D01*
X160391Y76651D01*
X161049Y76147D01*
X161208Y76081D01*
X161138Y75731D01*
X161080Y75590D01*
X156239D01*
X156239Y75590D01*
Y75590D01*
X156083Y75590D01*
X155984D01*
X155886D01*
X155729Y75590D01*
X155729Y75590D01*
Y75590D01*
X132953D01*
Y76673D01*
Y79823D01*
Y82972D01*
Y89075D01*
D01*
Y89075D01*
X132953Y89075D01*
Y89272D01*
D01*
X132953Y89345D01*
X134331D01*
X135101Y89446D01*
X135820Y89744D01*
X136437Y90217D01*
X137709Y91489D01*
X137927Y91580D01*
X138585Y92084D01*
X139090Y92742D01*
X139407Y93508D01*
X139515Y94331D01*
X139407Y95153D01*
X139090Y95919D01*
X138742Y96372D01*
X138742Y96376D01*
X139247Y97034D01*
X139565Y97800D01*
X139673Y98622D01*
X139565Y99444D01*
X139247Y100210D01*
X138742Y100868D01*
X138084Y101373D01*
X137318Y101691D01*
X137302Y101752D01*
X137325Y101769D01*
X137830Y102427D01*
X138147Y103193D01*
X138256Y104016D01*
X138147Y104838D01*
X137830Y105604D01*
X137325Y106262D01*
X136667Y106767D01*
X135901Y107084D01*
X135079Y107193D01*
X134256Y107084D01*
X133490Y106767D01*
X133401Y106699D01*
X132953Y106920D01*
Y109055D01*
X143287D01*
X143287Y109055D01*
Y109055D01*
X143287D01*
X143484D01*
X143641Y109055D01*
X143641Y109055D01*
Y109055D01*
X157919D01*
X158140Y108607D01*
D02*
G37*
D10*
X179213Y150315D02*
D03*
X202441D02*
D03*
D11*
X183953Y119567D02*
D03*
Y115827D02*
D03*
Y112087D02*
D03*
X193402D02*
D03*
Y119567D02*
D03*
D12*
X209764Y89567D02*
D03*
Y102165D02*
D03*
D13*
X100394Y118567D02*
D03*
Y126047D02*
D03*
Y111433D02*
D03*
Y103953D02*
D03*
X89724Y17150D02*
D03*
Y9669D02*
D03*
X52480Y73724D02*
D03*
Y66244D02*
D03*
X116890Y54945D02*
D03*
Y47465D02*
D03*
X115827Y93488D02*
D03*
Y86008D02*
D03*
X175827Y49189D02*
D03*
Y56669D02*
D03*
X196181Y84858D02*
D03*
Y92339D02*
D03*
X107795Y10764D02*
D03*
Y18244D02*
D03*
X113307Y10606D02*
D03*
Y18087D02*
D03*
X125984Y50567D02*
D03*
Y43087D02*
D03*
X132756Y50535D02*
D03*
Y43055D02*
D03*
X202323Y65850D02*
D03*
Y58370D02*
D03*
X208228Y58402D02*
D03*
Y65882D02*
D03*
X214488Y58402D02*
D03*
Y65882D02*
D03*
X41102Y110417D02*
D03*
Y102937D02*
D03*
X47283Y102929D02*
D03*
Y110409D02*
D03*
X7913Y137811D02*
D03*
Y145291D02*
D03*
X13386Y137811D02*
D03*
Y145291D02*
D03*
X35394Y136433D02*
D03*
Y143913D02*
D03*
X35472Y149307D02*
D03*
Y156787D02*
D03*
X41260Y149386D02*
D03*
Y156866D02*
D03*
X47401Y149386D02*
D03*
Y156866D02*
D03*
X41260Y136276D02*
D03*
Y143756D02*
D03*
X47401Y136276D02*
D03*
Y143756D02*
D03*
X6968Y122858D02*
D03*
Y115378D02*
D03*
X13465Y122780D02*
D03*
Y115299D02*
D03*
X6968Y109787D02*
D03*
Y102307D02*
D03*
X13465Y109787D02*
D03*
Y102307D02*
D03*
X19685Y109709D02*
D03*
Y102228D02*
D03*
X93858Y105299D02*
D03*
Y97819D02*
D03*
X60433Y135221D02*
D03*
Y127740D02*
D03*
X93622Y129236D02*
D03*
Y121756D02*
D03*
D14*
X58031Y113209D02*
D03*
Y110650D02*
D03*
Y108090D02*
D03*
Y105532D02*
D03*
Y102972D02*
D03*
Y100413D02*
D03*
Y97854D02*
D03*
Y95295D02*
D03*
X85197Y113209D02*
D03*
Y110650D02*
D03*
Y108090D02*
D03*
Y105532D02*
D03*
Y102972D02*
D03*
Y100413D02*
D03*
Y97854D02*
D03*
Y95295D02*
D03*
D15*
X97378Y86142D02*
D03*
X104858D02*
D03*
X83244D02*
D03*
X90724D02*
D03*
X155961Y60158D02*
D03*
X163441D02*
D03*
X147701Y125276D02*
D03*
X140220D02*
D03*
X181197Y92323D02*
D03*
X188677D02*
D03*
X181197Y98071D02*
D03*
X188677D02*
D03*
X198284Y31850D02*
D03*
X205764D02*
D03*
X34157Y116102D02*
D03*
X26677D02*
D03*
X34197Y110197D02*
D03*
X26717D02*
D03*
X34197Y104173D02*
D03*
X26717D02*
D03*
D16*
X61925Y19705D02*
D03*
X76925D02*
D03*
X61925Y9705D02*
D03*
X76925D02*
D03*
D17*
X61984Y38012D02*
D03*
Y41161D02*
D03*
Y44311D02*
D03*
Y47461D02*
D03*
Y50610D02*
D03*
Y53760D02*
D03*
Y56910D02*
D03*
Y60059D02*
D03*
Y63209D02*
D03*
Y66358D02*
D03*
Y69508D02*
D03*
X106866D02*
D03*
Y66358D02*
D03*
Y63209D02*
D03*
Y60059D02*
D03*
Y56910D02*
D03*
Y53760D02*
D03*
Y50610D02*
D03*
Y47461D02*
D03*
Y44311D02*
D03*
Y41161D02*
D03*
Y38012D02*
D03*
D18*
X68677Y76201D02*
D03*
X71827D02*
D03*
X74976D02*
D03*
X78126D02*
D03*
X81276D02*
D03*
X84425D02*
D03*
X87575D02*
D03*
X90724D02*
D03*
X93874D02*
D03*
X97024D02*
D03*
X100173D02*
D03*
Y31319D02*
D03*
X97024D02*
D03*
X93874D02*
D03*
X90724D02*
D03*
X87575D02*
D03*
X84425D02*
D03*
X81276D02*
D03*
X78126D02*
D03*
X74976D02*
D03*
X71827D02*
D03*
X68677D02*
D03*
D19*
X165433Y114469D02*
D03*
X162284D02*
D03*
X159134D02*
D03*
X155984D02*
D03*
X152835D02*
D03*
X149685D02*
D03*
X146535D02*
D03*
X143386D02*
D03*
X140236D02*
D03*
X137087D02*
D03*
X133937D02*
D03*
Y70177D02*
D03*
X137087D02*
D03*
X140236D02*
D03*
X143386D02*
D03*
X146535D02*
D03*
X149685D02*
D03*
X152835D02*
D03*
X155984D02*
D03*
X159134D02*
D03*
X162284D02*
D03*
X165433D02*
D03*
D20*
X127539Y108071D02*
D03*
Y104921D02*
D03*
Y101772D02*
D03*
Y98622D02*
D03*
Y95472D02*
D03*
Y92323D02*
D03*
Y89173D02*
D03*
Y86024D02*
D03*
Y82874D02*
D03*
Y79724D02*
D03*
Y76575D02*
D03*
X171831D02*
D03*
Y79724D02*
D03*
Y82874D02*
D03*
Y86024D02*
D03*
Y89173D02*
D03*
Y92323D02*
D03*
Y95472D02*
D03*
Y98622D02*
D03*
Y101772D02*
D03*
Y104921D02*
D03*
Y108071D02*
D03*
D21*
X145118Y44173D02*
D03*
X141378Y52441D02*
D03*
X148858D02*
D03*
D22*
X129370Y8779D02*
D03*
X164016D02*
D03*
D23*
X129370Y27480D02*
D03*
X164016D02*
D03*
D24*
X140394D02*
D03*
X143543D02*
D03*
X146693D02*
D03*
X149843D02*
D03*
X152992D02*
D03*
D25*
X205720Y19350D02*
D03*
X178161D02*
D03*
D26*
X202323Y51142D02*
D03*
X208228D02*
D03*
X202323Y39331D02*
D03*
X208228D02*
D03*
D27*
X20453Y124626D02*
D03*
X23012D02*
D03*
X25571D02*
D03*
X28130D02*
D03*
X20453Y142933D02*
D03*
X23012D02*
D03*
X25571D02*
D03*
X28130D02*
D03*
D28*
X85945Y122402D02*
D03*
Y124370D02*
D03*
Y126339D02*
D03*
Y128307D02*
D03*
Y130276D02*
D03*
X68622Y122402D02*
D03*
Y124370D02*
D03*
Y126339D02*
D03*
Y128307D02*
D03*
Y130276D02*
D03*
D29*
X90724Y86142D02*
X97378D01*
X92661Y9669D02*
X95433Y12441D01*
X48858Y66244D02*
X52480D01*
X46047D02*
X48858D01*
X46024D02*
X46047D01*
X196181Y92339D02*
X199866D01*
X147701Y125276D02*
X156339D01*
X170921Y56669D02*
X175827D01*
X110551Y18244D02*
X113150D01*
X53268Y132087D02*
Y154409D01*
X41260Y156866D02*
X47401D01*
X35551D02*
X41260D01*
X7913Y137811D02*
X13386D01*
X89724Y20000D02*
X102559D01*
X29370Y79094D02*
X43189D01*
X106039Y20000D02*
X107795Y18244D01*
X110551D01*
X102559Y20000D02*
X106039D01*
X109016Y19465D02*
Y22835D01*
X52992Y143756D02*
X53189D01*
X47401D02*
X52992D01*
X52480Y73724D02*
Y77402D01*
X100394Y96260D02*
Y103953D01*
X98835Y97819D02*
X100394Y96260D01*
X35551Y131575D02*
Y136276D01*
X7913Y145291D02*
X13386D01*
X112323Y130315D02*
X115827D01*
X107165D02*
X112323D01*
X100394Y96220D02*
Y96260D01*
X104858Y91795D01*
X102898Y126047D02*
X107165Y130315D01*
X100394Y126047D02*
X102898D01*
X170433Y115748D02*
Y120945D01*
X170413Y120925D02*
X170433Y120945D01*
X166063Y125276D02*
X170413Y120925D01*
X156339Y125276D02*
X166063D01*
X206772Y80551D02*
X214488Y72835D01*
Y65882D02*
Y72835D01*
X208228Y65882D02*
Y69921D01*
X200453Y77697D02*
X208228Y69921D01*
X195787Y72386D02*
X202323Y65850D01*
X151969Y131260D02*
Y147953D01*
X141772Y158150D02*
X151969Y147953D01*
X133661Y158150D02*
X141772D01*
X140197Y134213D02*
X140220Y134189D01*
Y127677D02*
Y134189D01*
X202638Y89567D02*
X209764D01*
X199866Y92339D02*
X202638Y89567D01*
X189268Y102165D02*
X209764D01*
X187835Y29213D02*
Y39567D01*
Y29213D02*
X197697Y19350D01*
X205720D01*
X188858Y84858D02*
X196181D01*
X188858Y68858D02*
Y84858D01*
X140220Y125276D02*
Y127677D01*
X115827Y84449D02*
Y86008D01*
Y81299D02*
Y84449D01*
X93858Y97819D02*
X98835D01*
X104858Y86142D02*
Y91795D01*
X80630Y86102D02*
X80669Y86142D01*
X83244D01*
X48559Y73724D02*
X52480D01*
X43189Y79094D02*
X48559Y73724D01*
X25630Y75354D02*
X29370Y79094D01*
X25630Y67992D02*
Y75354D01*
X89724Y17150D02*
Y20000D01*
X76925Y9705D02*
X89689D01*
X13386Y145291D02*
X16835D01*
X19291Y142835D01*
X29291Y143913D02*
X35394D01*
X41260Y149386D02*
X47401D01*
X35551D02*
X41260D01*
X35472Y149307D02*
X35551Y149386D01*
X35472Y143992D02*
Y149307D01*
X35394Y143913D02*
X35472Y143992D01*
X35394Y136433D02*
X35551Y136276D01*
X34157Y116102D02*
X34197Y116063D01*
X34157Y116102D02*
Y130181D01*
X35551Y131575D01*
X26717Y107165D02*
Y110197D01*
Y104173D02*
Y107165D01*
X6968Y102307D02*
X13465D01*
X6968Y109787D02*
X13465D01*
Y115299D01*
X7047Y122780D02*
X13465D01*
X6968Y122858D02*
X7047Y122780D01*
X13465D02*
Y127992D01*
X20118Y134646D01*
X23937D01*
X25571Y136279D01*
X34197Y113150D02*
Y116063D01*
Y107047D02*
Y110197D01*
Y104173D02*
Y107047D01*
X35551Y136276D02*
X41260D01*
X47401D01*
X19685Y100906D02*
Y102228D01*
Y100906D02*
X23268Y97323D01*
X46260D01*
X41102Y102937D02*
X47276D01*
X47283Y102929D01*
X47327Y102972D01*
X41102Y110417D02*
Y115079D01*
X23012Y156653D02*
X23031Y152008D01*
X43248Y117224D02*
X49862D01*
X41102Y115079D02*
X43248Y117224D01*
X47401Y156866D02*
X50811D01*
X53268Y154409D01*
X28858Y150669D02*
Y156575D01*
X46772Y125591D02*
X53268Y132087D01*
X40945Y125591D02*
X46772D01*
X49862Y117224D02*
X60256D01*
X63779Y120748D01*
X70213D01*
X55945Y124488D02*
X57181D01*
X60433Y127740D01*
Y135221D02*
Y138779D01*
X53638Y135221D02*
X60433D01*
X41260Y143756D02*
X47401D01*
X67047Y142165D02*
X67222D01*
X55216Y9705D02*
X61925D01*
X50433Y14488D02*
X55216Y9705D01*
X50433Y14488D02*
Y38701D01*
X52894Y41161D01*
X83681Y67067D02*
X86634D01*
X90709Y62992D01*
X116890Y42244D02*
Y47465D01*
Y54945D02*
Y58346D01*
X75728Y67067D02*
X79527D01*
X83681D01*
X89724Y9669D02*
X92661D01*
X95433Y9134D02*
Y12441D01*
X113150Y18244D02*
X113307Y18087D01*
X107795Y10764D02*
X113150D01*
X113307Y10606D01*
X127543D01*
X188677Y92323D02*
Y98071D01*
X155961Y56126D02*
Y60158D01*
Y56126D02*
X158346Y53740D01*
X167992D01*
X170921Y56669D01*
X175827Y49189D02*
X188842D01*
X181496D02*
Y78858D01*
X125984Y50567D02*
X132724D01*
X132756Y36260D02*
Y43055D01*
X136772Y24488D02*
Y36339D01*
X132835D02*
X136772D01*
X132756Y36260D02*
X132835Y36339D01*
X121693Y36260D02*
X132756D01*
X205764Y19394D02*
Y31850D01*
X195000D02*
X198284D01*
Y38047D01*
X199567Y39331D01*
X202323D01*
X214488Y45591D02*
Y58402D01*
X208228Y39331D02*
X214488Y45591D01*
X208228Y51142D02*
Y58402D01*
X202323Y51142D02*
Y58370D01*
D30*
X164331Y163661D02*
X173819D01*
X205039Y147716D02*
X207520D01*
X202441Y150315D02*
X205039Y147716D01*
X212992Y118819D02*
Y123661D01*
X207520Y134331D02*
Y147716D01*
Y123661D02*
Y134331D01*
X173819Y163661D02*
X179213Y158268D01*
Y150315D02*
Y158268D01*
X207520Y123661D02*
X212638D01*
X129370Y8779D02*
X164016D01*
Y27480D01*
X129370Y8779D02*
Y27480D01*
D31*
X181102Y115827D02*
X183953D01*
X106866Y53760D02*
X116929D01*
X78126Y45803D02*
X90709Y58386D01*
X160551Y106575D02*
X162047Y108071D01*
X171831D01*
X161732Y102520D02*
X164134Y104921D01*
X171831D01*
X162323Y97795D02*
X166299Y101772D01*
X171831D01*
X163130Y83563D02*
X166969Y79724D01*
X171831D01*
X162638Y78898D02*
X164961Y76575D01*
X171831D01*
X118661Y141142D02*
X133504Y126299D01*
X118661Y141142D02*
Y153150D01*
X113661Y158150D02*
X118661Y153150D01*
X94173Y148150D02*
X113661D01*
X80617Y134594D02*
X94173Y148150D01*
X80617Y126391D02*
Y134594D01*
Y126391D02*
X80669Y126339D01*
X120709Y75787D02*
Y82284D01*
X106866Y47461D02*
X116886D01*
X35472Y156787D02*
X35551Y156866D01*
X13465Y102307D02*
Y102665D01*
X19685Y108886D02*
Y109709D01*
X13465Y102665D02*
X19685Y108886D01*
X18976Y110417D02*
Y116457D01*
Y110417D02*
X19685Y109709D01*
X26598Y116181D02*
X26677Y116102D01*
X25571Y117209D02*
X26598Y116181D01*
X25197D02*
X26598D01*
X23661Y114646D02*
X25197Y116181D01*
X22402Y114646D02*
X23661D01*
X73543Y128307D02*
X74528Y129291D01*
Y134860D01*
X67222Y142165D02*
X74528Y134860D01*
X77047Y142165D02*
X77296Y141917D01*
X73622Y124370D02*
X77296Y128044D01*
Y141917D01*
X77913Y123583D02*
X80669Y126339D01*
X77913Y119055D02*
Y123583D01*
X52894Y41161D02*
X61984D01*
X52480Y66244D02*
X61870D01*
X90724Y76201D02*
Y86142D01*
X77913Y88819D02*
X80630Y86102D01*
X78130Y105532D02*
X85197D01*
X77913Y88819D02*
Y119055D01*
X97024Y62890D02*
Y76201D01*
X95512Y61378D02*
X97024Y62890D01*
X93874Y66158D02*
Y76201D01*
X90709Y62992D02*
X93874Y66158D01*
X90709Y58386D02*
Y62992D01*
Y58386D02*
X95335Y53760D01*
X106866D01*
X93874Y31319D02*
Y36874D01*
X90118Y40630D02*
X93874Y36874D01*
X82441Y40630D02*
X90118D01*
X97024Y31319D02*
Y38370D01*
X90433Y44961D02*
X97024Y38370D01*
X85039Y44961D02*
X90433D01*
X100161Y31332D02*
X100173Y31319D01*
X100161Y31332D02*
Y39761D01*
X90551Y49370D02*
X100161Y39761D01*
X88346Y49370D02*
X90551D01*
X35630Y37992D02*
X44606Y46968D01*
X52520D01*
X25630Y27992D02*
X36496Y17126D01*
X43031D01*
X78126Y31319D02*
Y39370D01*
Y45803D01*
X73110Y39370D02*
X78126D01*
X116772Y42126D02*
X116890Y42244D01*
X146693Y27480D02*
Y35000D01*
X148858Y37165D01*
Y52441D01*
X143543Y27480D02*
Y34961D01*
X141378Y37126D02*
X143543Y34961D01*
X141378Y37126D02*
Y52441D01*
X148858D02*
Y56732D01*
X146535Y59055D02*
X148858Y56732D01*
X146535Y59055D02*
Y70177D01*
X143386Y59134D02*
Y70177D01*
X141378Y57126D02*
X143386Y59134D01*
X141378Y52441D02*
Y57126D01*
X159134Y65827D02*
X163441Y61520D01*
X159134Y65827D02*
Y70177D01*
X163441Y60158D02*
Y61520D01*
X155984Y60181D02*
Y70177D01*
X123071Y89173D02*
X127539D01*
X115842Y86024D02*
X127539D01*
X115827Y86008D02*
X115842Y86024D01*
X115827Y93488D02*
X118756D01*
X123071Y89173D01*
X153543Y60158D02*
X155961D01*
X151693Y62008D02*
X153543Y60158D01*
X140220Y114484D02*
Y125276D01*
Y114484D02*
X140236Y114469D01*
X143386D02*
Y120000D01*
X147701Y124315D01*
Y125276D01*
X171831Y92323D02*
X181197D01*
X195016Y86024D02*
X196181Y84858D01*
X171831Y82874D02*
X177480D01*
X181496Y78858D01*
X171831Y86024D02*
X195016D01*
X122976Y43087D02*
X125984D01*
X121417Y44646D02*
X122976Y43087D01*
X121417Y44646D02*
Y52598D01*
X120197Y53819D02*
X121417Y52598D01*
X118937Y53819D02*
X120197D01*
X117811Y54945D02*
X118937Y53819D01*
X116890Y54945D02*
X117811D01*
X127539Y89173D02*
X143386D01*
Y114469D01*
X155984Y70177D02*
Y89016D01*
X143386Y89173D02*
X171831D01*
X127539Y92323D02*
X134331D01*
X127539Y98622D02*
X136496D01*
X127539Y101772D02*
X132835D01*
X106866Y63209D02*
X121280D01*
X127913Y69842D01*
X106866Y66358D02*
X117618D01*
X122323Y71063D01*
X106866Y69508D02*
X114429D01*
X120709Y75787D01*
X132835Y101772D02*
X135079Y104016D01*
X134331Y92323D02*
X136339Y94331D01*
X85758Y113770D02*
Y114852D01*
X87480Y116575D01*
X134016D01*
X137087Y114469D02*
Y119606D01*
X134764Y121929D02*
X137087Y119606D01*
X106024Y121929D02*
X134764D01*
X100394Y111433D02*
X106000D01*
X115433Y108071D02*
X127539D01*
X110000Y113504D02*
X115433Y108071D01*
D32*
X117165Y31732D02*
X121693Y36260D01*
X117165Y28858D02*
Y31732D01*
Y25315D02*
Y28858D01*
D33*
X189173Y134331D02*
X207520D01*
X183953Y129110D02*
X189173Y134331D01*
X183953Y119567D02*
Y129110D01*
X188740Y119617D02*
Y124134D01*
X179173Y112087D02*
X183953D01*
X177126Y114134D02*
X179173Y112087D01*
X177126Y114134D02*
Y117402D01*
X179291Y119567D01*
X183953D01*
X188690D02*
X193402D01*
X188677Y98071D02*
Y119567D01*
D34*
X59882Y126339D02*
X68622D01*
D35*
X28130Y124626D02*
Y131772D01*
X25571Y117209D02*
Y124626D01*
X18366D02*
X20453D01*
X17087Y123346D02*
X18366Y124626D01*
X17087Y118921D02*
Y123346D01*
X13465Y115299D02*
X17087Y118921D01*
X23012Y120492D02*
Y124626D01*
X19985Y117466D02*
X22003Y119483D01*
X23012Y120492D01*
X18976Y116457D02*
X19985Y117466D01*
X25571Y136279D02*
Y142933D01*
X52382Y100413D02*
X58031D01*
X46260Y97323D02*
X49291D01*
X52382Y100413D01*
X47327Y102972D02*
X58031D01*
X52161Y105532D02*
X58031D01*
X47283Y110409D02*
X52161Y105532D01*
X23012Y142933D02*
X23031Y152008D01*
X25571Y142933D02*
Y147382D01*
X28858Y150669D01*
X85197Y110650D02*
X99610D01*
D36*
X68622Y128307D02*
X73543D01*
X68622Y124370D02*
X73622D01*
X80669Y126339D02*
X85945D01*
Y124370D02*
X91008D01*
X93622Y121756D01*
X85945Y128307D02*
X93622D01*
D37*
X61984Y70315D02*
Y83527D01*
X58031Y87480D02*
X61984Y83527D01*
X58031Y87480D02*
Y94213D01*
D38*
X19488Y142894D02*
D03*
D39*
X68622Y131535D02*
D03*
D40*
X85965Y121417D02*
D03*
D41*
Y131260D02*
D03*
D42*
X85216Y97854D02*
D03*
D43*
X91969Y97776D02*
D03*
D44*
X85197Y105492D02*
D03*
D45*
X91772Y105315D02*
D03*
D46*
X60768Y25709D02*
D03*
D47*
X137913Y27362D02*
D03*
D48*
X155039Y30846D02*
D03*
D49*
X188858Y49173D02*
D03*
Y68858D02*
D03*
D50*
X155354Y17244D02*
D03*
X138031D02*
D03*
D51*
X67047Y142165D02*
D03*
X113661Y148150D02*
D03*
Y158150D02*
D03*
X123661Y148150D02*
D03*
Y158150D02*
D03*
X133661Y148150D02*
D03*
D52*
X77047Y142165D02*
D03*
X133661Y158150D02*
D03*
D53*
X35630Y67992D02*
D03*
Y57992D02*
D03*
Y47992D02*
D03*
Y37992D02*
D03*
Y27992D02*
D03*
X25630Y57992D02*
D03*
Y47992D02*
D03*
Y37992D02*
D03*
Y27992D02*
D03*
D54*
Y67992D02*
D03*
D55*
X96890Y97795D02*
D03*
X52480Y66244D02*
D03*
X46047D02*
D03*
X177126Y144449D02*
D03*
X179921Y145158D02*
D03*
X181024Y165630D02*
D03*
X214173Y143701D02*
D03*
X191929Y146063D02*
D03*
Y150906D02*
D03*
X191850Y154882D02*
D03*
X193504Y158150D02*
D03*
X198031Y158189D02*
D03*
X197756Y161614D02*
D03*
X193583Y161535D02*
D03*
X197992Y165157D02*
D03*
X193661D02*
D03*
X91024Y145158D02*
D03*
X101339Y148150D02*
D03*
X205512Y88150D02*
D03*
X205472Y91772D02*
D03*
X157559Y56929D02*
D03*
X154724Y57126D02*
D03*
X123819Y43087D02*
D03*
X109016Y22835D02*
D03*
X110551Y18347D02*
D03*
X102559Y20000D02*
D03*
X88858Y56535D02*
D03*
X95335Y53760D02*
D03*
X81181Y48740D02*
D03*
X52480Y77402D02*
D03*
X37165Y78661D02*
D03*
X52992Y143756D02*
D03*
X166181Y162323D02*
D03*
X168189Y165000D02*
D03*
X164331D02*
D03*
X206496Y146339D02*
D03*
X212992Y118819D02*
D03*
X212913Y123661D02*
D03*
X207520D02*
D03*
X206614Y149291D02*
D03*
Y152362D02*
D03*
X112323Y130315D02*
D03*
X115827D02*
D03*
X170433Y115748D02*
D03*
X156339Y125276D02*
D03*
X117165Y32598D02*
D03*
Y28858D02*
D03*
Y25315D02*
D03*
X162323Y97795D02*
D03*
X161732Y102520D02*
D03*
X160551Y106575D02*
D03*
X195787Y72386D02*
D03*
X200453Y77697D02*
D03*
X206772Y80551D02*
D03*
X187795Y39370D02*
D03*
X151969Y131260D02*
D03*
X148819Y125512D02*
D03*
X163130Y83563D02*
D03*
X162638Y78898D02*
D03*
X188740Y124134D02*
D03*
X140197Y134213D02*
D03*
X133504Y126299D02*
D03*
X181102Y115945D02*
D03*
X140220Y127677D02*
D03*
X115669Y95394D02*
D03*
X120709Y82284D02*
D03*
X115827Y84449D02*
D03*
Y81299D02*
D03*
X80630Y86102D02*
D03*
X93937Y86299D02*
D03*
X89724Y20000D02*
D03*
X10709Y145394D02*
D03*
X34197Y107047D02*
D03*
Y113150D02*
D03*
X26717Y107165D02*
D03*
X28130Y131772D02*
D03*
X22402Y114646D02*
D03*
X6968Y115378D02*
D03*
X44449Y156968D02*
D03*
X38464Y156890D02*
D03*
X10590Y137677D02*
D03*
X23012Y156653D02*
D03*
X49862Y117224D02*
D03*
X35512Y134173D02*
D03*
X28858Y156575D02*
D03*
X40945Y125591D02*
D03*
X55945Y124488D02*
D03*
X60433Y138779D02*
D03*
X68504Y131732D02*
D03*
X77913Y119055D02*
D03*
X85945Y121181D02*
D03*
Y131457D02*
D03*
X58858Y25984D02*
D03*
X62126D02*
D03*
X48858Y66244D02*
D03*
X97874Y85984D02*
D03*
X95512Y61378D02*
D03*
X88346Y49370D02*
D03*
X85039Y44961D02*
D03*
X82441Y40630D02*
D03*
X52520Y46968D02*
D03*
X43031Y17126D02*
D03*
X70433Y39213D02*
D03*
X73110Y39370D02*
D03*
X75728Y67067D02*
D03*
X83681D02*
D03*
X79527D02*
D03*
X116890Y58346D02*
D03*
X116772Y42126D02*
D03*
X100433Y104134D02*
D03*
Y97795D02*
D03*
X100354Y126063D02*
D03*
X145118Y42047D02*
D03*
X95433Y12441D02*
D03*
Y9134D02*
D03*
X151693Y62008D02*
D03*
X181197Y98071D02*
D03*
X175827Y58150D02*
D03*
X196181Y94488D02*
D03*
X154921Y36339D02*
D03*
Y32244D02*
D03*
X154764Y26929D02*
D03*
X127913Y69842D02*
D03*
X122323Y71063D02*
D03*
X135079Y104016D02*
D03*
X136496Y98622D02*
D03*
X136339Y94331D02*
D03*
X106024Y121929D02*
D03*
X106000Y111433D02*
D03*
X110000Y113504D02*
D03*
X176024Y20748D02*
D03*
Y18071D02*
D03*
X195000Y31850D02*
D03*
X163441Y60158D02*
D03*
X100433Y100748D02*
D03*
M02*
