%FSLAX25Y25*%
%MOIN*%
G70*
G01*
G75*
G04 Layer_Color=8388736*
%ADD10R,0.03543X0.04724*%
%ADD11R,0.07087X0.01063*%
%ADD12R,0.04724X0.03543*%
%ADD13R,0.01693X0.07087*%
%ADD14R,0.04331X0.05906*%
%ADD15R,0.06890X0.05512*%
%ADD16R,0.01969X0.09843*%
%ADD17R,0.07874X0.09843*%
%ADD18R,0.07874X0.11811*%
%ADD19R,0.03150X0.07087*%
%ADD20R,0.06890X0.02165*%
%ADD21R,0.02165X0.06890*%
%ADD22R,0.02165X0.09843*%
%ADD23R,0.09843X0.02165*%
%ADD24R,0.09843X0.06299*%
%ADD25R,0.08268X0.01575*%
%ADD26R,0.08661X0.07874*%
%ADD27R,0.03937X0.02362*%
%ADD28R,0.15748X0.11024*%
%ADD29C,0.01969*%
%ADD30C,0.07874*%
%ADD31C,0.03937*%
%ADD32C,0.01575*%
%ADD33C,0.02953*%
%ADD34C,0.00984*%
%ADD35C,0.03150*%
%ADD36C,0.05906*%
%ADD37C,0.01181*%
%ADD38R,0.05906X0.16339*%
%ADD39R,0.06221X0.09764*%
%ADD40R,0.07677X0.05827*%
%ADD41R,0.07559X0.04646*%
%ADD42R,0.08268X0.06732*%
%ADD43R,0.07323X0.04764*%
%ADD44R,0.08307X0.06654*%
%ADD45R,0.07126X0.03071*%
%ADD46R,0.07126X0.02992*%
%ADD47R,0.07087X0.03543*%
%ADD48R,0.03228X0.07126*%
%ADD49C,0.08032*%
%ADD50R,0.08032X0.08032*%
%ADD51R,0.05906X0.05906*%
%ADD52C,0.05906*%
%ADD53C,0.03543*%
%ADD54C,0.07087*%
%ADD55C,0.02362*%
%ADD56R,0.06299X0.02362*%
%ADD57R,0.09488X0.23622*%
%ADD58R,0.07874X0.08661*%
%ADD59C,0.02362*%
%ADD60C,0.00787*%
%ADD61C,0.01000*%
D10*
X93622Y121756D02*
D03*
Y129236D02*
D03*
X60433Y127740D02*
D03*
Y135221D02*
D03*
X93858Y97819D02*
D03*
Y105299D02*
D03*
X19685Y102228D02*
D03*
Y109709D02*
D03*
X13465Y102307D02*
D03*
Y109787D02*
D03*
X6968Y102307D02*
D03*
Y109787D02*
D03*
X13465Y115299D02*
D03*
Y122780D02*
D03*
X6968Y115378D02*
D03*
Y122858D02*
D03*
X47401Y143756D02*
D03*
Y136276D02*
D03*
X41260Y143756D02*
D03*
Y136276D02*
D03*
X47401Y156866D02*
D03*
Y149386D02*
D03*
X41260Y156866D02*
D03*
Y149386D02*
D03*
X35472Y156787D02*
D03*
Y149307D02*
D03*
X35394Y143913D02*
D03*
Y136433D02*
D03*
X13386Y145291D02*
D03*
Y137811D02*
D03*
X7913Y145291D02*
D03*
Y137811D02*
D03*
X47283Y110409D02*
D03*
Y102929D02*
D03*
X41102Y102937D02*
D03*
Y110417D02*
D03*
X214488Y65882D02*
D03*
Y58402D02*
D03*
X208228Y65882D02*
D03*
Y58402D02*
D03*
X202323Y58370D02*
D03*
Y65850D02*
D03*
X132756Y43055D02*
D03*
Y50535D02*
D03*
X125984Y43087D02*
D03*
Y50567D02*
D03*
X113307Y18087D02*
D03*
Y10606D02*
D03*
X107795Y18244D02*
D03*
Y10764D02*
D03*
X196181Y92339D02*
D03*
Y84858D02*
D03*
X175827Y56669D02*
D03*
Y49189D02*
D03*
X115827Y86008D02*
D03*
Y93488D02*
D03*
X116890Y47465D02*
D03*
Y54945D02*
D03*
X52480Y66244D02*
D03*
Y73724D02*
D03*
X89724Y9669D02*
D03*
Y17150D02*
D03*
X100394Y103953D02*
D03*
Y111433D02*
D03*
Y126047D02*
D03*
Y118567D02*
D03*
D11*
X68622Y130276D02*
D03*
Y128307D02*
D03*
Y126339D02*
D03*
Y124370D02*
D03*
Y122402D02*
D03*
X85945Y130276D02*
D03*
Y128307D02*
D03*
Y126339D02*
D03*
Y124370D02*
D03*
Y122402D02*
D03*
D12*
X26717Y104173D02*
D03*
X34197D02*
D03*
X26717Y110197D02*
D03*
X34197D02*
D03*
X26677Y116102D02*
D03*
X34157D02*
D03*
X205764Y31850D02*
D03*
X198284D02*
D03*
X188677Y98071D02*
D03*
X181197D02*
D03*
X188677Y92323D02*
D03*
X181197D02*
D03*
X140220Y125276D02*
D03*
X147701D02*
D03*
X163441Y60158D02*
D03*
X155961D02*
D03*
X90724Y86142D02*
D03*
X83244D02*
D03*
X104858D02*
D03*
X97378D02*
D03*
D13*
X28130Y142933D02*
D03*
X25571D02*
D03*
X23012D02*
D03*
X20453D02*
D03*
X28130Y124626D02*
D03*
X25571D02*
D03*
X23012D02*
D03*
X20453D02*
D03*
D14*
X208228Y39331D02*
D03*
X202323D02*
D03*
X208228Y51142D02*
D03*
X202323D02*
D03*
D15*
X178161Y19350D02*
D03*
X205720D02*
D03*
D16*
X152992Y27480D02*
D03*
X149843D02*
D03*
X146693D02*
D03*
X143543D02*
D03*
X140394D02*
D03*
D17*
X164016D02*
D03*
X129370D02*
D03*
D18*
X164016Y8779D02*
D03*
X129370D02*
D03*
D19*
X148858Y52441D02*
D03*
X141378D02*
D03*
X145118Y44173D02*
D03*
D20*
X171831Y108071D02*
D03*
Y104921D02*
D03*
Y101772D02*
D03*
Y98622D02*
D03*
Y95472D02*
D03*
Y92323D02*
D03*
Y89173D02*
D03*
Y86024D02*
D03*
Y82874D02*
D03*
Y79724D02*
D03*
Y76575D02*
D03*
X127539D02*
D03*
Y79724D02*
D03*
Y82874D02*
D03*
Y86024D02*
D03*
Y89173D02*
D03*
Y92323D02*
D03*
Y95472D02*
D03*
Y98622D02*
D03*
Y101772D02*
D03*
Y104921D02*
D03*
Y108071D02*
D03*
D21*
X165433Y70177D02*
D03*
X162284D02*
D03*
X159134D02*
D03*
X155984D02*
D03*
X152835D02*
D03*
X149685D02*
D03*
X146535D02*
D03*
X143386D02*
D03*
X140236D02*
D03*
X137087D02*
D03*
X133937D02*
D03*
Y114469D02*
D03*
X137087D02*
D03*
X140236D02*
D03*
X143386D02*
D03*
X146535D02*
D03*
X149685D02*
D03*
X152835D02*
D03*
X155984D02*
D03*
X159134D02*
D03*
X162284D02*
D03*
X165433D02*
D03*
D22*
X68677Y31319D02*
D03*
X71827D02*
D03*
X74976D02*
D03*
X78126D02*
D03*
X81276D02*
D03*
X84425D02*
D03*
X87575D02*
D03*
X90724D02*
D03*
X93874D02*
D03*
X97024D02*
D03*
X100173D02*
D03*
Y76201D02*
D03*
X97024D02*
D03*
X93874D02*
D03*
X90724D02*
D03*
X87575D02*
D03*
X84425D02*
D03*
X81276D02*
D03*
X78126D02*
D03*
X74976D02*
D03*
X71827D02*
D03*
X68677D02*
D03*
D23*
X106866Y38012D02*
D03*
Y41161D02*
D03*
Y44311D02*
D03*
Y47461D02*
D03*
Y50610D02*
D03*
Y53760D02*
D03*
Y56910D02*
D03*
Y60059D02*
D03*
Y63209D02*
D03*
Y66358D02*
D03*
Y69508D02*
D03*
X61984D02*
D03*
Y66358D02*
D03*
Y63209D02*
D03*
Y60059D02*
D03*
Y56910D02*
D03*
Y53760D02*
D03*
Y50610D02*
D03*
Y47461D02*
D03*
Y44311D02*
D03*
Y41161D02*
D03*
Y38012D02*
D03*
D24*
X76925Y9705D02*
D03*
X61925D02*
D03*
X76925Y19705D02*
D03*
X61925D02*
D03*
D25*
X85197Y95295D02*
D03*
Y97854D02*
D03*
Y100413D02*
D03*
Y102972D02*
D03*
Y105532D02*
D03*
Y108090D02*
D03*
Y110650D02*
D03*
Y113209D02*
D03*
X58031Y95295D02*
D03*
Y97854D02*
D03*
Y100413D02*
D03*
Y102972D02*
D03*
Y105532D02*
D03*
Y108090D02*
D03*
Y110650D02*
D03*
Y113209D02*
D03*
D26*
X209764Y102165D02*
D03*
Y89567D02*
D03*
D27*
X193402Y119567D02*
D03*
Y112087D02*
D03*
X183953D02*
D03*
Y115827D02*
D03*
Y119567D02*
D03*
D28*
X202441Y150315D02*
D03*
X179213D02*
D03*
D49*
X25630Y27992D02*
D03*
Y37992D02*
D03*
Y47992D02*
D03*
Y57992D02*
D03*
X35630Y27992D02*
D03*
Y37992D02*
D03*
Y47992D02*
D03*
Y57992D02*
D03*
Y67992D02*
D03*
D50*
X25630D02*
D03*
D51*
X133661Y158150D02*
D03*
X77047Y142165D02*
D03*
D52*
X133661Y148150D02*
D03*
X123661Y158150D02*
D03*
Y148150D02*
D03*
X113661Y158150D02*
D03*
Y148150D02*
D03*
X67047Y142165D02*
D03*
D53*
X138031Y17244D02*
D03*
X155354D02*
D03*
D54*
X188858Y68858D02*
D03*
Y49173D02*
D03*
M02*
