M48
;Layer_Color=9474304
;FILE_FORMAT=2:5
INCH,TZ
;TYPE=PLATED
T1F00S00C0.01181
T2F00S00C0.03543
T3F00S00C0.04016
%
T01
X43031Y17126
X37165Y78661
X34197Y107047
Y113150
X22402Y114646
X26717Y107165
X28130Y131772
X35512Y134173
X40945Y125591
X10590Y137677
X10709Y145394
X6968Y115378
X49862Y117224
X55945Y124488
X60433Y138779
X52992Y143756
X68504Y131732
X85945Y131457
Y121181
X77913Y119055
X100354Y126063
X106024Y121929
X106000Y111433
X110000Y113504
X100433Y104134
X100433Y100748
X100433Y97795
X96890Y97795
X97874Y85984
X93937Y86299
X80630Y86102
X79527Y67067
X75728
X83681
X88858Y56535
X88346Y49370
X85039Y44961
X82441Y40630
X81181Y48740
X73110Y39370
X70433Y39213
X62126Y25984
X58858
X52520Y46968
X52480Y66244
X48858
X46047
X52480Y77402
X95512Y61378
X95335Y53760
X116890Y58346
X116772Y42126
X123819Y43087
X117165Y32598
Y28858
Y25315
X109016Y22835
X110551Y18347
X102559Y20000
X89724
X95433Y12441
Y9134
X154764Y26929
X154921Y32244
Y36339
X145118Y42047
X154724Y57126
X157559Y56929
X163441Y60158
X151693Y62008
X162638Y78898
X163130Y83563
X162323Y97795
X161732Y102520
X160551Y106575
X170433Y115748
X181102Y115945
X188740Y124134
X191929Y146063
Y150906
X179921Y145158
X177126Y144449
X151969Y131260
X148819Y125512
X156339Y125276
X140220Y127677
X140197Y134213
X133504Y126299
X115827Y130315
X112323
X101339Y148150
X91024Y145158
X115669Y95394
X115827Y84449
Y81299
X120709Y82284
X122323Y71063
X127913Y69842
X136339Y94331
X136496Y98622
X135079Y104016
X181197Y98071
X196181Y94488
X200453Y77697
X195787Y72386
X175827Y58150
X187795Y39370
X195000Y31850
X176024Y20748
Y18071
X206772Y80551
X205512Y88150
X205472Y91772
X207520Y123661
X212913
X212992Y118819
X214173Y143701
X206496Y146339
X206614Y149291
Y152362
X198031Y158189
X197756Y161614
X197992Y165157
X193661
X193583Y161535
X193504Y158150
X191850Y154882
X181024Y165630
X168189Y165000
X164331
X166181Y162323
X44449Y156968
X38464Y156890
X28858Y156575
X23012Y156653
T02
X138031Y17244
X155354
X188858Y49173
Y68858
X133661Y148150
X123661
X113661
X77047Y142165
X67047
X113661Y158150
X123661
X133661
T03
X25630Y27992
Y37992
Y47992
Y57992
Y67992
X35630
Y57992
Y47992
Y37992
Y27992
M30
