%FSLAX25Y25*%
%MOIN*%
G70*
G01*
G75*
G04 Layer_Physical_Order=2*
G04 Layer_Color=16711680*
%ADD10R,0.03543X0.04724*%
%ADD11R,0.07087X0.01063*%
%ADD12R,0.04724X0.03543*%
%ADD13R,0.01693X0.07087*%
%ADD14R,0.04331X0.05906*%
%ADD15R,0.06890X0.05512*%
%ADD16R,0.01969X0.09843*%
%ADD17R,0.07874X0.09843*%
%ADD18R,0.07874X0.11811*%
%ADD19R,0.03150X0.07087*%
%ADD20R,0.06890X0.02165*%
%ADD21R,0.02165X0.06890*%
%ADD22R,0.02165X0.09843*%
%ADD23R,0.09843X0.02165*%
%ADD24R,0.09843X0.06299*%
%ADD25R,0.08268X0.01575*%
%ADD26R,0.08661X0.07874*%
%ADD27R,0.03937X0.02362*%
%ADD28R,0.15748X0.11024*%
%ADD29C,0.01969*%
%ADD30C,0.07874*%
%ADD31C,0.03937*%
%ADD32C,0.01575*%
%ADD33C,0.02953*%
%ADD34C,0.00984*%
%ADD35C,0.03150*%
%ADD36C,0.05906*%
%ADD37C,0.01181*%
%ADD38R,0.05906X0.16339*%
%ADD39R,0.06221X0.09764*%
%ADD40R,0.07677X0.05827*%
%ADD41R,0.07559X0.04646*%
%ADD42R,0.08268X0.06732*%
%ADD43R,0.07323X0.04764*%
%ADD44R,0.08307X0.06654*%
%ADD45R,0.07126X0.03071*%
%ADD46R,0.07126X0.02992*%
%ADD47R,0.07087X0.03543*%
%ADD48R,0.03228X0.07126*%
%ADD49C,0.08032*%
%ADD50R,0.08032X0.08032*%
%ADD51R,0.05906X0.05906*%
%ADD52C,0.05906*%
%ADD53C,0.03543*%
%ADD54C,0.07087*%
%ADD55C,0.02362*%
%ADD56R,0.06299X0.02362*%
%ADD57R,0.09488X0.23622*%
%ADD58R,0.07874X0.08661*%
G36*
X214368Y171617D02*
X215182Y170094D01*
X216278Y168758D01*
X217613Y167663D01*
X219136Y166849D01*
X219992Y166589D01*
Y7899D01*
X219136Y7639D01*
X217613Y6825D01*
X216278Y5730D01*
X215182Y4395D01*
X214368Y2871D01*
X214109Y2015D01*
X7899D01*
X7639Y2871D01*
X6825Y4395D01*
X5730Y5730D01*
X4395Y6825D01*
X2871Y7639D01*
X2015Y7899D01*
Y166589D01*
X2871Y166849D01*
X4395Y167663D01*
X5730Y168758D01*
X6825Y170094D01*
X7639Y171617D01*
X7899Y172473D01*
X214109D01*
X214368Y171617D01*
D02*
G37*
%LPC*%
G36*
X123661Y163113D02*
X122377Y162944D01*
X121179Y162448D01*
X120151Y161660D01*
X119363Y160632D01*
X118911Y159542D01*
X118867D01*
Y159542D01*
D01*
D01*
X118867D01*
X118596D01*
X118341Y159712D01*
X117960Y160632D01*
X117171Y161660D01*
X116143Y162448D01*
X114946Y162944D01*
X113661Y163113D01*
X112377Y162944D01*
X111179Y162448D01*
X110152Y161660D01*
X109363Y160632D01*
X108867Y159434D01*
X108698Y158150D01*
X108867Y156865D01*
X109363Y155668D01*
X110152Y154640D01*
X111179Y153851D01*
X112377Y153355D01*
X113661Y153186D01*
X114946Y153355D01*
X116143Y153851D01*
X117171Y154640D01*
X117960Y155668D01*
X118411Y156757D01*
X118456D01*
Y156757D01*
D01*
D01*
X118456D01*
X118867D01*
Y156757D01*
X118911D01*
X119363Y155668D01*
X120151Y154640D01*
X121179Y153851D01*
X122269Y153400D01*
Y152900D01*
X121179Y152448D01*
X120151Y151660D01*
X119363Y150631D01*
X118867Y149434D01*
X118698Y148150D01*
X118867Y146865D01*
X119363Y145668D01*
X120151Y144640D01*
X121179Y143851D01*
X122377Y143355D01*
X122589Y143327D01*
X122750Y142854D01*
X114182Y134286D01*
X112323D01*
X111295Y134151D01*
X110337Y133754D01*
X109515Y133123D01*
X108884Y132300D01*
X108487Y131343D01*
X108352Y130315D01*
X108383Y130081D01*
X107934Y129860D01*
X104232Y133563D01*
X103615Y134036D01*
X102897Y134333D01*
X102126Y134435D01*
X86985D01*
X86767Y134525D01*
X85945Y134634D01*
X85123Y134525D01*
X84356Y134208D01*
X83698Y133703D01*
X83194Y133045D01*
X82876Y132279D01*
X82768Y131457D01*
X82876Y130634D01*
X82967Y130417D01*
Y122221D01*
X82876Y122003D01*
X82768Y121181D01*
X82876Y120359D01*
X83194Y119593D01*
X83698Y118935D01*
X83873Y118800D01*
X83906Y118302D01*
X75761Y110157D01*
X75332Y110486D01*
X74374Y110883D01*
X73346Y111018D01*
X59916D01*
Y124488D01*
X59781Y125516D01*
X59384Y126474D01*
X58753Y127296D01*
X58911Y127761D01*
X68504D01*
X69532Y127897D01*
X70489Y128293D01*
X71312Y128924D01*
X71943Y129747D01*
X72340Y130704D01*
X72475Y131732D01*
X72340Y132760D01*
X71943Y133718D01*
X71312Y134540D01*
X70489Y135171D01*
X69532Y135568D01*
X68504Y135703D01*
X55346D01*
X31666Y159383D01*
X30844Y160014D01*
X29886Y160410D01*
X28858Y160546D01*
X27830Y160410D01*
X26873Y160014D01*
X26050Y159383D01*
X25820Y159461D01*
X24997Y160092D01*
X24039Y160489D01*
X23012Y160625D01*
X21984Y160489D01*
X21026Y160092D01*
X20204Y159461D01*
X19573Y158639D01*
X19176Y157681D01*
X19041Y156653D01*
Y145965D01*
X19176Y144937D01*
X19573Y143979D01*
X20204Y143157D01*
X22038Y141323D01*
X21847Y140861D01*
X20857D01*
X13517Y148202D01*
X12694Y148833D01*
X11736Y149229D01*
X10709Y149365D01*
X9681Y149229D01*
X8723Y148833D01*
X7901Y148202D01*
X7270Y147379D01*
X6873Y146422D01*
X6738Y145394D01*
X6873Y144366D01*
X7270Y143408D01*
X7901Y142586D01*
X16405Y134082D01*
X17227Y133451D01*
X18185Y133054D01*
X19213Y132919D01*
X31150D01*
X32704Y131365D01*
X33526Y130734D01*
X34484Y130338D01*
X35512Y130202D01*
X36540Y130338D01*
X37497Y130734D01*
X38320Y131365D01*
X38951Y132188D01*
X39425Y132282D01*
X45891Y125816D01*
Y117224D01*
X46027Y116197D01*
X46423Y115239D01*
X47054Y114417D01*
X47877Y113785D01*
X48834Y113389D01*
X49862Y113253D01*
X50890Y113389D01*
X51558Y113665D01*
X51974Y113388D01*
Y111018D01*
X38168D01*
Y113150D01*
X38032Y114177D01*
X37636Y115135D01*
X37005Y115957D01*
X36182Y116589D01*
X35225Y116985D01*
X34197Y117121D01*
X33169Y116985D01*
X32211Y116589D01*
X31389Y115957D01*
X30758Y115135D01*
X30361Y114177D01*
X30226Y113150D01*
Y107047D01*
X30226Y107047D01*
X30226D01*
X30361Y106019D01*
X30758Y105062D01*
X31389Y104239D01*
X32211Y103608D01*
X33169Y103212D01*
X34197Y103076D01*
X71702D01*
X72979Y101798D01*
D01*
X72979D01*
Y101798D01*
X72979Y101798D01*
X78967Y95811D01*
X78776Y95349D01*
X73992D01*
X72964Y95214D01*
X72007Y94817D01*
X71184Y94186D01*
X47213Y70215D01*
X46047D01*
X45020Y70080D01*
X44062Y69683D01*
X43239Y69052D01*
X42608Y68230D01*
X42212Y67272D01*
X42076Y66244D01*
X42212Y65216D01*
X42608Y64259D01*
X43239Y63436D01*
X44062Y62805D01*
X45013Y62411D01*
X45110Y61921D01*
X42015Y58825D01*
X41544Y58994D01*
X41528Y59165D01*
X41185Y60293D01*
X40630Y61333D01*
X39882Y62244D01*
X38971Y62992D01*
X38971Y62992D01*
X38971D01*
Y62992D01*
D01*
X39882Y63740D01*
X40630Y64651D01*
X41185Y65691D01*
X41528Y66819D01*
X41643Y67992D01*
X41528Y69165D01*
X41185Y70293D01*
X40630Y71333D01*
X39882Y72244D01*
X38971Y72992D01*
X37931Y73548D01*
X36803Y73890D01*
X35630Y74005D01*
X34457Y73890D01*
X33329Y73548D01*
X32289Y72992D01*
X31378Y72244D01*
X30630Y71333D01*
X30074Y70293D01*
X29732Y69165D01*
X29617Y67992D01*
X29732Y66819D01*
X30074Y65691D01*
X30630Y64651D01*
X31378Y63740D01*
X31984Y63242D01*
Y62742D01*
X31378Y62244D01*
X30880Y61638D01*
X30380D01*
X29882Y62244D01*
X28971Y62992D01*
X27931Y63548D01*
X26803Y63890D01*
X25630Y64005D01*
X24457Y63890D01*
X23329Y63548D01*
X22289Y62992D01*
X21378Y62244D01*
X20630Y61333D01*
X20074Y60293D01*
X19732Y59165D01*
X19617Y57992D01*
X19732Y56819D01*
X20074Y55691D01*
X20630Y54651D01*
X21378Y53740D01*
X21984Y53242D01*
Y52742D01*
X21378Y52244D01*
X20630Y51333D01*
X20074Y50293D01*
X19732Y49165D01*
X19617Y47992D01*
X19732Y46819D01*
X20074Y45691D01*
X20630Y44651D01*
X21378Y43740D01*
X21984Y43242D01*
Y42742D01*
X21378Y42244D01*
X20630Y41333D01*
X20074Y40293D01*
X19732Y39165D01*
X19617Y37992D01*
X19732Y36819D01*
X19852Y36426D01*
X16752Y33326D01*
X16279Y32710D01*
X16192Y32499D01*
X15981Y31991D01*
X15880Y31220D01*
Y24882D01*
X15981Y24111D01*
X16192Y23603D01*
X16279Y23393D01*
X16752Y22776D01*
X20492Y19036D01*
X20493Y19036D01*
X20842Y18768D01*
X21109Y18563D01*
X21407Y18439D01*
X21828Y18265D01*
X22598Y18164D01*
X38780D01*
X39550Y18265D01*
X39576Y18276D01*
X39965Y17962D01*
X39963Y17948D01*
X39963Y17948D01*
X39963Y17948D01*
X39855Y17126D01*
X39963Y16304D01*
X40280Y15538D01*
X40785Y14880D01*
X41443Y14375D01*
X42209Y14058D01*
X43031Y13949D01*
X43854Y14058D01*
X44620Y14375D01*
X45278Y14880D01*
X45783Y15538D01*
X45873Y15756D01*
X70525Y40408D01*
X73018D01*
X78721Y34705D01*
X78721Y34705D01*
X79338Y34232D01*
X80056Y33934D01*
X80146Y33922D01*
X80827Y33833D01*
X80827Y33833D01*
X85039D01*
X85810Y33934D01*
X86528Y34232D01*
X87145Y34705D01*
X89153Y36713D01*
X89153Y36713D01*
X89390Y37021D01*
X89626Y37330D01*
X89775Y37689D01*
X89924Y38048D01*
X89936Y38138D01*
X90026Y38819D01*
X90026Y38819D01*
Y42953D01*
X90026Y42953D01*
X89936Y43634D01*
X89924Y43724D01*
X89626Y44442D01*
X89153Y45059D01*
X89153Y45059D01*
X88238Y45974D01*
X88346Y46193D01*
X89169Y46301D01*
X89935Y46619D01*
X90593Y47124D01*
X91098Y47782D01*
X91415Y48548D01*
X91523Y49370D01*
X91415Y50192D01*
X91098Y50959D01*
X90593Y51616D01*
X89935Y52121D01*
X89717Y52211D01*
X85255Y56673D01*
X84639Y57146D01*
X84428Y57233D01*
X83920Y57444D01*
X83150Y57545D01*
X52126D01*
X52126Y57545D01*
X51355Y57444D01*
X50637Y57146D01*
X50020Y56673D01*
X50020Y56673D01*
X45960Y52613D01*
X45498Y52804D01*
Y53885D01*
X50013Y58400D01*
X94472D01*
X94690Y58309D01*
X95512Y58201D01*
X96334Y58309D01*
X97100Y58627D01*
X97758Y59132D01*
X98263Y59790D01*
X98580Y60556D01*
X98689Y61378D01*
X98580Y62200D01*
X98263Y62966D01*
X97758Y63624D01*
X97100Y64129D01*
X96334Y64447D01*
X95512Y64555D01*
X94690Y64447D01*
X94472Y64356D01*
X56977D01*
X56699Y64772D01*
X56883Y65216D01*
X57018Y66244D01*
X56883Y67272D01*
X56486Y68230D01*
X56475Y68245D01*
X75637Y87407D01*
X83394D01*
X87625Y83176D01*
X87625D01*
X87625Y83176D01*
X87625Y83176D01*
Y83176D01*
X88448Y82545D01*
X89009Y82313D01*
X89405Y82149D01*
X90433Y82013D01*
X96229D01*
X105793Y72450D01*
Y42126D01*
Y37826D01*
X92625Y24658D01*
X91994Y23836D01*
X91597Y22878D01*
X91462Y21850D01*
Y12441D01*
Y9134D01*
X91597Y8106D01*
X91994Y7148D01*
X92625Y6326D01*
X93448Y5695D01*
X94405Y5298D01*
X95433Y5163D01*
X96461Y5298D01*
X97419Y5695D01*
X98241Y6326D01*
X98872Y7148D01*
X99269Y8106D01*
X99404Y9134D01*
Y12441D01*
Y20206D01*
X111740Y32541D01*
X111967Y32447D01*
X112136Y31976D01*
X111683Y31129D01*
X111345Y30016D01*
X111231Y28858D01*
Y25315D01*
Y20827D01*
X111231Y20827D01*
X111231D01*
X111345Y19669D01*
X111683Y18556D01*
X112231Y17530D01*
X112969Y16631D01*
X124072Y5528D01*
X124971Y4790D01*
X125997Y4242D01*
X127110Y3904D01*
X128268Y3790D01*
X195197D01*
X196354Y3904D01*
X196354D01*
X196354Y3904D01*
X196354Y3904D01*
X197468Y4242D01*
X198494Y4790D01*
X199393Y5528D01*
X217109Y23245D01*
X217847Y24144D01*
X218396Y25170D01*
X218733Y26283D01*
X218847Y27441D01*
X218847Y27441D01*
X218847Y27441D01*
Y27441D01*
Y123661D01*
X218733Y124819D01*
X218396Y125932D01*
X217847Y126958D01*
X217109Y127857D01*
X216210Y128595D01*
X215184Y129144D01*
X214071Y129481D01*
X212913Y129595D01*
X207520D01*
X206362Y129481D01*
X205249Y129144D01*
X204223Y128595D01*
X203324Y127857D01*
X202586Y126958D01*
X202037Y125932D01*
X201700Y124819D01*
X201586Y123661D01*
X201700Y122504D01*
X202037Y121390D01*
X202586Y120365D01*
X203324Y119465D01*
X204223Y118727D01*
X205249Y118179D01*
X206362Y117841D01*
X206979Y117780D01*
Y85209D01*
X206517Y85017D01*
X204822Y86712D01*
X204206Y87186D01*
X203995Y87273D01*
X203487Y87483D01*
X202716Y87585D01*
X186076D01*
X164980Y108681D01*
X164363Y109154D01*
X163645Y109451D01*
X162874Y109553D01*
X161591D01*
X161373Y109643D01*
X160551Y109752D01*
X159729Y109643D01*
X158963Y109326D01*
X158305Y108821D01*
X157800Y108163D01*
X157483Y107397D01*
X157374Y106575D01*
X157483Y105753D01*
X157800Y104986D01*
X158305Y104329D01*
X158887Y103882D01*
X158664Y103342D01*
X158555Y102520D01*
X158664Y101698D01*
X158981Y100931D01*
X159486Y100273D01*
X159689Y100118D01*
X159754Y99622D01*
X159572Y99384D01*
X159254Y98618D01*
X159146Y97795D01*
X159254Y96973D01*
X159572Y96207D01*
X160076Y95549D01*
X160734Y95044D01*
X160952Y94954D01*
X181949Y73957D01*
X181949Y73957D01*
X182566Y73484D01*
X183284Y73186D01*
X184055Y73085D01*
X184055Y73085D01*
X184589D01*
X184810Y72636D01*
X184044Y71638D01*
X183488Y70297D01*
X183299Y68858D01*
X183387Y68187D01*
X182939Y67966D01*
X165971Y84933D01*
X165881Y85151D01*
X165376Y85809D01*
X164718Y86314D01*
X164500Y86405D01*
X154947Y95958D01*
Y128942D01*
X155409Y129133D01*
X163216Y121326D01*
X164038Y120695D01*
X164319Y120579D01*
X164996Y120298D01*
X166024Y120163D01*
X188740D01*
X189768Y120298D01*
X190726Y120695D01*
X191548Y121326D01*
X192179Y122148D01*
X192576Y123106D01*
X192711Y124134D01*
X192576Y125162D01*
X192179Y126119D01*
X191548Y126942D01*
X190726Y127573D01*
X189768Y127970D01*
X188740Y128105D01*
X167668D01*
X157178Y138595D01*
X156356Y139226D01*
X155398Y139623D01*
X154370Y139758D01*
X146146D01*
X145954Y140220D01*
X151251Y145517D01*
X160079D01*
Y143583D01*
X172677D01*
Y144328D01*
X176142D01*
X177426Y144497D01*
X178624Y144993D01*
X179591Y145735D01*
X180039Y145514D01*
Y145158D01*
X181186D01*
Y142362D01*
X179252D01*
Y129764D01*
X191063D01*
Y142362D01*
X189128D01*
Y145158D01*
X190276D01*
Y150157D01*
Y155157D01*
Y161457D01*
X186813D01*
X186082Y161759D01*
X185158Y161881D01*
X181890D01*
Y162614D01*
X174409D01*
Y154458D01*
X174144Y154255D01*
X172677D01*
Y155394D01*
X160079D01*
Y153459D01*
X149606D01*
X148579Y153324D01*
X147621Y152927D01*
X146798Y152296D01*
X140206Y145703D01*
X138425D01*
X138147Y146119D01*
X138456Y146865D01*
X138625Y148150D01*
X138456Y149434D01*
X137960Y150631D01*
X137171Y151660D01*
X136143Y152448D01*
X134946Y152944D01*
X133661Y153113D01*
X133776Y153228D01*
X138583D01*
Y163071D01*
X128740D01*
Y160030D01*
X128250Y159932D01*
X127960Y160632D01*
X127171Y161660D01*
X126143Y162448D01*
X124946Y162944D01*
X123661Y163113D01*
D02*
G37*
G36*
X14189Y119349D02*
X6968D01*
X5941Y119214D01*
X4983Y118817D01*
X4161Y118186D01*
X3529Y117363D01*
X3133Y116406D01*
X2998Y115378D01*
X3133Y114350D01*
X3529Y113392D01*
X4161Y112570D01*
X4983Y111939D01*
X5941Y111542D01*
X6968Y111407D01*
X12675D01*
X12936Y111207D01*
X13893Y110810D01*
X14921Y110675D01*
X22402D01*
X23429Y110810D01*
X24387Y111207D01*
X25210Y111838D01*
X25840Y112660D01*
X26237Y113618D01*
X26373Y114646D01*
X26237Y115673D01*
X25840Y116631D01*
X25210Y117454D01*
X24387Y118085D01*
X23429Y118481D01*
X22402Y118617D01*
X16435D01*
X16174Y118817D01*
X15217Y119214D01*
X14189Y119349D01*
D02*
G37*
G36*
X211732Y166457D02*
X201496D01*
Y160158D01*
Y155157D01*
Y150157D01*
Y145158D01*
X201806D01*
X201820Y145054D01*
X202315Y143857D01*
X203104Y142829D01*
X204132Y142040D01*
X205329Y141544D01*
X206614Y141375D01*
X207899Y141544D01*
X209096Y142040D01*
X210124Y142829D01*
X210913Y143857D01*
X211409Y145054D01*
X211422Y145158D01*
X211732D01*
Y148843D01*
X218110D01*
Y151915D01*
X218206Y152146D01*
X218341Y153173D01*
Y158110D01*
X218206Y159138D01*
X217925Y159815D01*
X217809Y160096D01*
X217178Y160918D01*
X215918Y162178D01*
X215096Y162809D01*
X214138Y163206D01*
X213110Y163341D01*
X211732D01*
Y166457D01*
D02*
G37*
G36*
X67047Y147129D02*
X65763Y146960D01*
X64565Y146464D01*
X63537Y145675D01*
X62748Y144647D01*
X62253Y143450D01*
X62084Y142165D01*
X62253Y140881D01*
X62748Y139683D01*
X63537Y138655D01*
X64565Y137867D01*
X65763Y137371D01*
X67047Y137202D01*
X68332Y137371D01*
X69529Y137867D01*
X70557Y138655D01*
X71346Y139683D01*
X71636Y140383D01*
X72126Y140285D01*
Y137244D01*
X81968D01*
Y147087D01*
X72126D01*
Y144045D01*
X71636Y143948D01*
X71346Y144647D01*
X70557Y145675D01*
X69529Y146464D01*
X68332Y146960D01*
X67047Y147129D01*
D02*
G37*
%LPD*%
G36*
X85148Y48357D02*
X85039Y48137D01*
X84217Y48029D01*
X83451Y47712D01*
X82793Y47207D01*
X82288Y46549D01*
X82005Y45866D01*
X81515Y45768D01*
X78208Y49074D01*
X77592Y49548D01*
X77381Y49635D01*
X76873Y49845D01*
X76102Y49947D01*
X53560D01*
X53342Y50037D01*
X52520Y50145D01*
X52320Y50550D01*
X53360Y51589D01*
X81916D01*
X85148Y48357D01*
D02*
G37*
G36*
X159796Y77527D02*
X159887Y77309D01*
X160391Y76651D01*
X161049Y76147D01*
X161816Y75829D01*
X162638Y75721D01*
X163460Y75829D01*
X164226Y76147D01*
X164884Y76651D01*
X165064Y76886D01*
X165563Y76918D01*
X187468Y55013D01*
X187370Y54523D01*
X186079Y53988D01*
X184927Y53104D01*
X184044Y51953D01*
X183488Y50612D01*
X183299Y49173D01*
X183488Y47734D01*
X184044Y46393D01*
X184927Y45242D01*
X186079Y44359D01*
X187419Y43803D01*
X188858Y43614D01*
X190297Y43803D01*
X191403Y44262D01*
X191681Y43846D01*
X190184Y42348D01*
X188836D01*
X188618Y42439D01*
X187795Y42547D01*
X186973Y42439D01*
X186207Y42121D01*
X185549Y41616D01*
X185044Y40958D01*
X184727Y40192D01*
X184618Y39370D01*
X184727Y38548D01*
X185044Y37782D01*
X185549Y37124D01*
X186207Y36619D01*
X186948Y36312D01*
X186851Y35821D01*
X180897D01*
X167412Y49306D01*
Y60158D01*
X167277Y61185D01*
X166880Y62143D01*
X166249Y62965D01*
X157548Y71666D01*
X156726Y72297D01*
X155768Y72694D01*
X154740Y72829D01*
X145472D01*
X144445Y72694D01*
X143487Y72297D01*
X142665Y71666D01*
X139772Y68774D01*
X131710D01*
X131519Y69236D01*
X138444Y76162D01*
X138918Y76779D01*
X139215Y77497D01*
X139317Y78268D01*
Y93291D01*
X139407Y93508D01*
X139515Y94331D01*
X139407Y95153D01*
X139090Y95919D01*
X138742Y96372D01*
X138742Y96376D01*
X139247Y97034D01*
X139380Y97355D01*
X139871Y97453D01*
X159796Y77527D01*
D02*
G37*
G36*
X49451Y46146D02*
X49768Y45380D01*
X50273Y44722D01*
X50931Y44217D01*
X51697Y43900D01*
X52520Y43792D01*
X53342Y43900D01*
X53560Y43990D01*
X65031D01*
X65222Y43528D01*
X49310Y27616D01*
X48861Y27837D01*
X48923Y28307D01*
X48923Y28307D01*
Y46335D01*
X49422Y46367D01*
X49451Y46146D01*
D02*
G37*
G36*
X203940Y79156D02*
X204021Y78963D01*
X204525Y78305D01*
X205183Y77800D01*
X205949Y77483D01*
X206772Y77374D01*
X206979Y77192D01*
Y29899D01*
X192739Y15658D01*
X159196D01*
X158918Y16074D01*
X158998Y16268D01*
X159127Y17244D01*
X158998Y18221D01*
X158621Y19130D01*
X158022Y19912D01*
X157240Y20511D01*
X156331Y20888D01*
X155354Y21016D01*
X154378Y20888D01*
X153468Y20511D01*
X152687Y19912D01*
X152087Y19130D01*
X151710Y18221D01*
X151582Y17244D01*
X151710Y16268D01*
X151791Y16074D01*
X151513Y15658D01*
X141873D01*
X141595Y16074D01*
X141675Y16268D01*
X141804Y17244D01*
X141675Y18221D01*
X141298Y19130D01*
X140699Y19912D01*
X139918Y20511D01*
X139008Y20888D01*
X138031Y21016D01*
X137055Y20888D01*
X136145Y20511D01*
X135364Y19912D01*
X134765Y19130D01*
X134388Y18221D01*
X134259Y17244D01*
X134388Y16268D01*
X134468Y16074D01*
X134190Y15658D01*
X130726D01*
X123099Y23285D01*
Y25315D01*
Y28858D01*
X122985Y30016D01*
X122648Y31129D01*
X122129Y32100D01*
Y32598D01*
X121960Y33883D01*
X121464Y35080D01*
X120675Y36108D01*
X119647Y36897D01*
X118450Y37393D01*
X117165Y37562D01*
X115881Y37393D01*
X114683Y36897D01*
X114183Y36513D01*
X113735Y36734D01*
Y38155D01*
X116772D01*
X117799Y38290D01*
X118757Y38687D01*
X119580Y39318D01*
X120211Y40141D01*
X120607Y41098D01*
X120743Y42126D01*
X120607Y43154D01*
X120211Y44111D01*
X119580Y44934D01*
X118757Y45565D01*
X117799Y45962D01*
X116772Y46097D01*
X113735D01*
Y66728D01*
X114197Y66920D01*
X119121Y61995D01*
X119944Y61364D01*
X120224Y61248D01*
X120901Y60967D01*
X121929Y60832D01*
X141417D01*
X142445Y60967D01*
X143403Y61364D01*
X144225Y61995D01*
X147117Y64887D01*
X153095D01*
X159470Y58513D01*
Y47661D01*
X159470Y47661D01*
X159470D01*
X159605Y46634D01*
X160002Y45676D01*
X160633Y44853D01*
X176444Y29043D01*
X176444D01*
X176444Y29043D01*
X176444D01*
X176444Y29043D01*
Y29043D01*
X176444Y29043D01*
Y29043D01*
X177267Y28411D01*
X178224Y28015D01*
X179252Y27879D01*
X195000D01*
X196028Y28015D01*
X196985Y28411D01*
X197808Y29043D01*
X198439Y29865D01*
X198836Y30823D01*
X198971Y31850D01*
X198836Y32878D01*
X198439Y33836D01*
X197808Y34658D01*
X196985Y35289D01*
X196028Y35686D01*
X195000Y35821D01*
X188740D01*
X188642Y36312D01*
X188836Y36392D01*
X191417D01*
X192188Y36493D01*
X192696Y36704D01*
X192906Y36791D01*
X193523Y37264D01*
X197145Y40886D01*
X197619Y41503D01*
X197916Y42221D01*
X198018Y42992D01*
Y51653D01*
X197916Y52424D01*
X197706Y52932D01*
X197619Y53143D01*
X197145Y53759D01*
X187966Y62939D01*
X188187Y63387D01*
X188858Y63299D01*
X190297Y63488D01*
X191638Y64044D01*
X192789Y64927D01*
X193673Y66079D01*
X194228Y67419D01*
X194418Y68858D01*
X194387Y69088D01*
X194784Y69392D01*
X194965Y69317D01*
X195787Y69209D01*
X196610Y69317D01*
X197376Y69635D01*
X198034Y70139D01*
X198539Y70797D01*
X198856Y71564D01*
X198964Y72386D01*
X198856Y73208D01*
X198539Y73974D01*
X198034Y74632D01*
X197376Y75137D01*
X197158Y75227D01*
X195195Y77190D01*
X195387Y77652D01*
X196286D01*
X197611Y76326D01*
X197702Y76108D01*
X198206Y75450D01*
X198864Y74946D01*
X199630Y74628D01*
X200453Y74520D01*
X201275Y74628D01*
X202041Y74946D01*
X202699Y75450D01*
X203204Y76108D01*
X203521Y76875D01*
X203629Y77697D01*
X203521Y78519D01*
X203255Y79163D01*
X203462Y79301D01*
X203940Y79156D01*
D02*
G37*
G36*
X130352Y126110D02*
X130435Y125477D01*
X130753Y124711D01*
X131258Y124053D01*
X131915Y123548D01*
X132133Y123458D01*
X137455Y118136D01*
Y106728D01*
X137006Y106507D01*
X136667Y106767D01*
X135901Y107084D01*
X135079Y107193D01*
X134256Y107084D01*
X133490Y106767D01*
X132832Y106262D01*
X132328Y105604D01*
X132237Y105386D01*
X125338Y98487D01*
X124876Y98679D01*
Y121269D01*
X129879Y126271D01*
X130352Y126110D01*
D02*
G37*
G36*
X129935Y137288D02*
X129279Y136784D01*
X125948Y133453D01*
X125440Y133064D01*
X118098Y125721D01*
X117467Y124899D01*
X117070Y123941D01*
X116935Y122913D01*
X116935Y122913D01*
X116935D01*
X116935Y122913D01*
X116935D01*
Y94046D01*
X113019Y90131D01*
X112388Y89308D01*
X111991Y88351D01*
X111856Y87323D01*
Y84449D01*
X111991Y83421D01*
X112218Y82874D01*
X111991Y82327D01*
X111856Y81299D01*
Y78272D01*
X111394Y78080D01*
X100682Y88792D01*
X99859Y89423D01*
X98902Y89820D01*
X97874Y89955D01*
X92078D01*
X88671Y93362D01*
X88862Y93824D01*
X100433D01*
X101461Y93960D01*
X102418Y94356D01*
X103241Y94987D01*
X103872Y95810D01*
X104269Y96767D01*
X104404Y97795D01*
Y104134D01*
X104269Y105162D01*
X103872Y106119D01*
X103241Y106942D01*
X102418Y107573D01*
X101461Y107969D01*
X100433Y108105D01*
X99405Y107969D01*
X98448Y107573D01*
X97625Y106942D01*
X96994Y106119D01*
X96597Y105162D01*
X96462Y104134D01*
Y101766D01*
X84243D01*
X81423Y104587D01*
X98928Y122092D01*
X100354D01*
X101382Y122227D01*
X102340Y122624D01*
X102487Y122737D01*
X102920Y122487D01*
X102847Y121929D01*
X102955Y121107D01*
X103045Y120889D01*
Y112530D01*
X102931Y112255D01*
X102823Y111433D01*
X102931Y110611D01*
X103249Y109845D01*
X103754Y109187D01*
X104412Y108682D01*
X105178Y108364D01*
X106000Y108256D01*
X106822Y108364D01*
X107588Y108682D01*
X108246Y109187D01*
X108751Y109845D01*
X108958Y110344D01*
X109178Y110435D01*
X110000Y110327D01*
X110822Y110435D01*
X111588Y110753D01*
X112246Y111258D01*
X112751Y111916D01*
X113068Y112682D01*
X113177Y113504D01*
X113068Y114326D01*
X112978Y114544D01*
Y123583D01*
X112877Y124354D01*
X112703Y124774D01*
X112579Y125072D01*
X112106Y125689D01*
X111868Y125926D01*
X112089Y126375D01*
X112323Y126344D01*
X115827D01*
X116855Y126479D01*
X117812Y126876D01*
X118635Y127507D01*
X128889Y137761D01*
X129774D01*
X129935Y137288D01*
D02*
G37*
G36*
X127376Y84086D02*
Y80328D01*
X120952Y73905D01*
X120734Y73814D01*
X120246Y73440D01*
X119798Y73661D01*
Y78847D01*
X120174Y79177D01*
X120709Y79107D01*
X121531Y79215D01*
X122297Y79532D01*
X122955Y80037D01*
X123460Y80695D01*
X123550Y80913D01*
X126914Y84277D01*
X127376Y84086D01*
D02*
G37*
G36*
X148816Y131440D02*
X148792Y131260D01*
X148900Y130438D01*
X148990Y130220D01*
Y97410D01*
X148528Y97219D01*
X143411Y102336D01*
Y119370D01*
X143310Y120141D01*
X143012Y120859D01*
X142539Y121476D01*
X142539Y121476D01*
X140698Y123317D01*
X140859Y123790D01*
X141248Y123842D01*
X142206Y124238D01*
X143028Y124869D01*
X143659Y125692D01*
X144056Y126649D01*
X144191Y127677D01*
Y130058D01*
X144817Y130141D01*
X145775Y130537D01*
X146597Y131168D01*
X147245Y131816D01*
X148486D01*
X148816Y131440D01*
D02*
G37*
D10*
X178150Y165764D02*
D03*
Y158283D02*
D03*
X214370Y145693D02*
D03*
Y153173D02*
D03*
D26*
X166378Y149488D02*
D03*
Y162087D02*
D03*
D29*
X154764Y26929D02*
X160945Y20748D01*
X176024D01*
X85945Y131457D02*
X102126D01*
X110000Y123583D01*
Y113504D02*
Y123583D01*
X106024Y111433D02*
Y121929D01*
X135197Y98622D02*
X136496D01*
X130354Y93779D02*
X135197Y98622D01*
X130354Y79094D02*
Y93779D01*
X125827Y94764D02*
X135079Y104016D01*
X125827Y87402D02*
Y94764D01*
X122323Y71063D02*
X130354Y79094D01*
X136339Y78268D02*
Y94331D01*
X127913Y69842D02*
X136339Y78268D01*
X148740Y36339D02*
X154921D01*
X145118Y39961D02*
X148740Y36339D01*
X145118Y39961D02*
Y42047D01*
Y58031D01*
X149094Y62008D01*
X151693D01*
X70591Y39370D02*
X73110D01*
X70433Y39213D02*
X70591Y39370D01*
X74252Y43386D02*
X80827Y36811D01*
X69291Y43386D02*
X74252D01*
X43031Y17126D02*
X69291Y43386D01*
X85039Y36811D02*
X87047Y38819D01*
X80827Y36811D02*
X85039D01*
Y44961D02*
X87047Y42953D01*
Y38819D02*
Y42953D01*
X45945Y48386D02*
X52126Y54567D01*
X45945Y28307D02*
Y48386D01*
X38780Y21142D02*
X45945Y28307D01*
X83150Y54567D02*
X88346Y49370D01*
X52126Y54567D02*
X83150D01*
X22598Y21142D02*
X38780D01*
X18858Y24882D02*
X22598Y21142D01*
X18858Y24882D02*
Y31220D01*
X25630Y37992D01*
X76102Y46968D02*
X82441Y40630D01*
X52520Y46968D02*
X76102D01*
X48779Y61378D02*
X95512D01*
X42520Y55118D02*
X48779Y61378D01*
X42520Y34882D02*
Y55118D01*
X35630Y27992D02*
X42520Y34882D01*
X85945Y121181D02*
Y131457D01*
X120709Y82284D02*
X125827Y87402D01*
X133504Y126299D02*
X140433Y119370D01*
Y101102D02*
Y119370D01*
Y101102D02*
X162638Y78898D01*
X151969Y94724D02*
X163130Y83563D01*
X151969Y94724D02*
Y131260D01*
X163130Y83563D02*
X195039Y51653D01*
Y42992D02*
Y51653D01*
X191417Y39370D02*
X195039Y42992D01*
X187795Y39370D02*
X191417D01*
X162323Y97795D02*
X184055Y76063D01*
X192110D01*
X195787Y72386D01*
X161732Y102520D02*
X161792D01*
X183682Y80630D01*
X197520D01*
X200453Y77697D01*
X160551Y106575D02*
X162874D01*
X184843Y84606D01*
X202716D01*
X206772Y80551D01*
D30*
X117165Y20827D02*
Y25315D01*
Y28858D01*
Y20827D02*
X128268Y9724D01*
X195197D01*
X212913Y27441D01*
X207520Y123661D02*
X212913D01*
Y27441D02*
Y123661D01*
D31*
X185158Y163307D02*
X196221D01*
X178150Y165764D02*
X181441D01*
X214370Y140197D02*
Y145693D01*
X166378Y162087D02*
X170055Y165764D01*
X77628Y68967D02*
X80630Y71969D01*
X75728Y67067D02*
X77628Y68967D01*
X179252Y31850D02*
X195000D01*
X163441Y47661D02*
X179252Y31850D01*
X163441Y47661D02*
Y60158D01*
X144803Y58346D02*
X145118Y58031D01*
X116890Y58346D02*
X144803D01*
X95433Y21850D02*
X109764Y36181D01*
X75787Y104606D02*
X75827D01*
X73346Y107047D02*
X75787Y104606D01*
X82598Y97795D01*
X75827Y104606D02*
X97283Y126063D01*
X100354D01*
X82598Y97795D02*
X100433D01*
X55945Y107047D02*
X73346D01*
X55945D02*
Y124488D01*
X34197Y107047D02*
X55945D01*
X109764Y36181D02*
Y42126D01*
X116772D01*
X109764D02*
Y74094D01*
X97874Y85984D02*
X109764Y74094D01*
X80630Y71969D02*
Y86102D01*
X71850Y35709D02*
Y37795D01*
X62126Y25984D02*
X71850Y35709D01*
X85039Y91378D02*
X90433Y85984D01*
X73992Y91378D02*
X85039D01*
X62913Y20000D02*
X89724D01*
X62126Y20787D02*
X62913Y20000D01*
X62126Y20787D02*
Y25984D01*
X58858D02*
X62126D01*
X51299Y9961D02*
X62126Y20787D01*
X16457Y9961D02*
X51299D01*
X10630Y15787D02*
X16457Y9961D01*
X10630Y15787D02*
Y65158D01*
X13465Y67992D01*
X25630D01*
X53701Y131732D02*
X68504D01*
X28858Y156575D02*
X53701Y131732D01*
X49862Y117224D02*
Y127461D01*
X35236Y142087D02*
X49862Y127461D01*
X26890Y142087D02*
X35236D01*
X34197Y107047D02*
Y113150D01*
X28130Y111004D02*
Y131772D01*
X28445Y125591D02*
X40945D01*
X23012Y145965D02*
Y156653D01*
Y145965D02*
X26890Y142087D01*
X32795Y136890D02*
X35512Y134173D01*
X19213Y136890D02*
X32795D01*
X10709Y145394D02*
X19213Y136890D01*
X16496Y131772D02*
X28130D01*
X10590Y137677D02*
X16496Y131772D01*
X26717Y107165D02*
Y109590D01*
X28130Y111004D01*
X14921Y114646D02*
X22402D01*
X14189Y115378D02*
X14921Y114646D01*
X6968Y115378D02*
X14189D01*
X26717Y69079D02*
Y107165D01*
X115827Y70906D02*
Y81299D01*
Y70906D02*
X121929Y64803D01*
X141417D01*
X145472Y68858D01*
X154740D01*
X163441Y60158D01*
X115827Y84449D02*
Y87323D01*
X120905Y92402D01*
Y122913D01*
X128248Y130256D01*
X128366D01*
X132087Y133976D01*
X140220Y127677D02*
Y134213D01*
X132087Y133976D02*
X143789D01*
X145600Y135787D01*
X181197Y98071D02*
X192598D01*
X196181Y94488D01*
X181197Y98071D02*
Y115850D01*
X170433Y115748D02*
X170630Y115945D01*
X181102D01*
X145600Y135787D02*
X154370D01*
X166024Y124134D01*
X188740D01*
X112323Y130315D02*
X115827D01*
X127244Y141732D01*
X141850D01*
X181441Y165764D02*
X183898Y163307D01*
X185158Y136063D02*
Y147205D01*
X183898Y163307D02*
X185158D01*
X100433Y97795D02*
Y104134D01*
X170055Y165764D02*
X178150D01*
X206614Y159370D02*
Y162284D01*
X213110Y159370D02*
X214370Y158110D01*
Y153173D02*
Y158110D01*
X206614Y159370D02*
X213110D01*
X141850Y141732D02*
X149606Y149488D01*
X166378D01*
X181102Y115945D02*
X190118D01*
X197756Y123583D01*
Y136063D01*
X210236D02*
X214370Y140197D01*
X197756Y136063D02*
X210236D01*
X46047Y66244D02*
X48858D01*
X53047D01*
X48858D02*
X73992Y91378D01*
X95433Y9134D02*
Y12441D01*
Y21850D01*
X90433Y85984D02*
X97874D01*
D33*
X77913Y119055D02*
Y129764D01*
X71142Y136535D02*
X77913Y129764D01*
X62677Y136535D02*
X71142D01*
X60433Y138779D02*
X62677Y136535D01*
D35*
X178150Y158307D02*
X185158D01*
X181263Y153153D02*
X185003D01*
X178661Y150551D02*
X181263Y153153D01*
X177402Y150551D02*
X178661D01*
D36*
X117165Y28858D02*
Y32598D01*
X197756Y136063D02*
Y153937D01*
X166378Y149291D02*
X176142D01*
X177402Y150551D01*
X206614Y148307D02*
Y149291D01*
Y152362D01*
Y146339D02*
Y148307D01*
D49*
X25630Y27992D02*
D03*
Y37992D02*
D03*
Y47992D02*
D03*
Y57992D02*
D03*
X35630Y27992D02*
D03*
Y37992D02*
D03*
Y47992D02*
D03*
Y57992D02*
D03*
Y67992D02*
D03*
D50*
X25630D02*
D03*
D51*
X133661Y158150D02*
D03*
X77047Y142165D02*
D03*
D52*
X133661Y148150D02*
D03*
X123661Y158150D02*
D03*
Y148150D02*
D03*
X113661Y158150D02*
D03*
Y148150D02*
D03*
X67047Y142165D02*
D03*
D53*
X138031Y17244D02*
D03*
X155354D02*
D03*
D54*
X188858Y68858D02*
D03*
Y49173D02*
D03*
D55*
X100433Y100748D02*
D03*
X163441Y60158D02*
D03*
X195000Y31850D02*
D03*
X176024Y18071D02*
D03*
Y20748D02*
D03*
X110000Y113504D02*
D03*
X106000Y111433D02*
D03*
X106024Y121929D02*
D03*
X136339Y94331D02*
D03*
X136496Y98622D02*
D03*
X135079Y104016D02*
D03*
X122323Y71063D02*
D03*
X127913Y69842D02*
D03*
X154764Y26929D02*
D03*
X154921Y32244D02*
D03*
Y36339D02*
D03*
X196181Y94488D02*
D03*
X175827Y58150D02*
D03*
X181197Y98071D02*
D03*
X151693Y62008D02*
D03*
X95433Y9134D02*
D03*
Y12441D02*
D03*
X145118Y42047D02*
D03*
X100354Y126063D02*
D03*
X100433Y97795D02*
D03*
Y104134D02*
D03*
X116772Y42126D02*
D03*
X116890Y58346D02*
D03*
X79527Y67067D02*
D03*
X83681D02*
D03*
X75728D02*
D03*
X73110Y39370D02*
D03*
X70433Y39213D02*
D03*
X43031Y17126D02*
D03*
X52520Y46968D02*
D03*
X82441Y40630D02*
D03*
X85039Y44961D02*
D03*
X88346Y49370D02*
D03*
X95512Y61378D02*
D03*
X97874Y85984D02*
D03*
X48858Y66244D02*
D03*
X62126Y25984D02*
D03*
X58858D02*
D03*
X85945Y131457D02*
D03*
Y121181D02*
D03*
X77913Y119055D02*
D03*
X68504Y131732D02*
D03*
X60433Y138779D02*
D03*
X55945Y124488D02*
D03*
X40945Y125591D02*
D03*
X28858Y156575D02*
D03*
X35512Y134173D02*
D03*
X49862Y117224D02*
D03*
X23012Y156653D02*
D03*
X10590Y137677D02*
D03*
X38464Y156890D02*
D03*
X44449Y156968D02*
D03*
X6968Y115378D02*
D03*
X22402Y114646D02*
D03*
X28130Y131772D02*
D03*
X26717Y107165D02*
D03*
X34197Y113150D02*
D03*
Y107047D02*
D03*
X10709Y145394D02*
D03*
X89724Y20000D02*
D03*
X93937Y86299D02*
D03*
X80630Y86102D02*
D03*
X115827Y81299D02*
D03*
Y84449D02*
D03*
X120709Y82284D02*
D03*
X115669Y95394D02*
D03*
X140220Y127677D02*
D03*
X181102Y115945D02*
D03*
X133504Y126299D02*
D03*
X140197Y134213D02*
D03*
X188740Y124134D02*
D03*
X162638Y78898D02*
D03*
X163130Y83563D02*
D03*
X148819Y125512D02*
D03*
X151969Y131260D02*
D03*
X187795Y39370D02*
D03*
X206772Y80551D02*
D03*
X200453Y77697D02*
D03*
X195787Y72386D02*
D03*
X160551Y106575D02*
D03*
X161732Y102520D02*
D03*
X162323Y97795D02*
D03*
X117165Y25315D02*
D03*
Y28858D02*
D03*
Y32598D02*
D03*
X156339Y125276D02*
D03*
X170433Y115748D02*
D03*
X115827Y130315D02*
D03*
X112323D02*
D03*
X206614Y152362D02*
D03*
Y149291D02*
D03*
X207520Y123661D02*
D03*
X212913D02*
D03*
X212992Y118819D02*
D03*
X206496Y146339D02*
D03*
X164331Y165000D02*
D03*
X168189D02*
D03*
X166181Y162323D02*
D03*
X52992Y143756D02*
D03*
X37165Y78661D02*
D03*
X52480Y77402D02*
D03*
X81181Y48740D02*
D03*
X95335Y53760D02*
D03*
X88858Y56535D02*
D03*
X102559Y20000D02*
D03*
X110551Y18347D02*
D03*
X109016Y22835D02*
D03*
X123819Y43087D02*
D03*
X154724Y57126D02*
D03*
X157559Y56929D02*
D03*
X205472Y91772D02*
D03*
X205512Y88150D02*
D03*
X101339Y148150D02*
D03*
X91024Y145158D02*
D03*
X193661Y165157D02*
D03*
X197992D02*
D03*
X193583Y161535D02*
D03*
X197756Y161614D02*
D03*
X198031Y158189D02*
D03*
X193504Y158150D02*
D03*
X191850Y154882D02*
D03*
X191929Y150906D02*
D03*
Y146063D02*
D03*
X214173Y143701D02*
D03*
X181024Y165630D02*
D03*
X179921Y145158D02*
D03*
X177126Y144449D02*
D03*
X46047Y66244D02*
D03*
X52480D02*
D03*
X96890Y97795D02*
D03*
D56*
X185158Y148307D02*
D03*
Y153307D02*
D03*
Y158307D02*
D03*
Y163307D02*
D03*
X206614Y148307D02*
D03*
Y153307D02*
D03*
Y158307D02*
D03*
Y163307D02*
D03*
D57*
X195886Y155807D02*
D03*
D58*
X185158Y136063D02*
D03*
X197756D02*
D03*
M02*
