%FSLAX25Y25*%
%MOIN*%
G70*
G01*
G75*
G04 Layer_Color=8421504*
%ADD10R,0.15748X0.11024*%
%ADD11R,0.03937X0.02362*%
%ADD12R,0.08661X0.07874*%
%ADD13R,0.03543X0.04724*%
%ADD14R,0.08268X0.01575*%
%ADD15R,0.04724X0.03543*%
%ADD16R,0.09843X0.06299*%
%ADD17R,0.09843X0.02165*%
%ADD18R,0.02165X0.09843*%
%ADD19R,0.02165X0.06890*%
%ADD20R,0.06890X0.02165*%
%ADD21R,0.03150X0.07087*%
%ADD22R,0.07874X0.11811*%
%ADD23R,0.07874X0.09843*%
%ADD24R,0.01969X0.09843*%
%ADD25R,0.06890X0.05512*%
%ADD26R,0.04331X0.05906*%
%ADD27R,0.01693X0.07087*%
%ADD28R,0.07087X0.01063*%
%ADD29C,0.03937*%
%ADD30C,0.07874*%
%ADD31C,0.01969*%
%ADD32C,0.05906*%
%ADD33C,0.03150*%
%ADD34C,0.01181*%
%ADD35C,0.01575*%
%ADD36C,0.00984*%
%ADD37C,0.02953*%
%ADD38R,0.03228X0.07126*%
%ADD39R,0.07087X0.03543*%
%ADD40R,0.07126X0.02992*%
%ADD41R,0.07126X0.03071*%
%ADD42R,0.08307X0.06654*%
%ADD43R,0.07323X0.04764*%
%ADD44R,0.08268X0.06732*%
%ADD45R,0.07559X0.04646*%
%ADD46R,0.07677X0.05827*%
%ADD47R,0.06221X0.09764*%
%ADD48R,0.05906X0.16339*%
%ADD49C,0.07087*%
%ADD50C,0.03543*%
%ADD51C,0.05906*%
%ADD52R,0.05906X0.05906*%
%ADD53C,0.08032*%
%ADD54R,0.08032X0.08032*%
%ADD55C,0.02362*%
%ADD56R,0.07874X0.08661*%
%ADD57R,0.09488X0.23622*%
%ADD58R,0.06299X0.02362*%
%ADD59C,0.02362*%
%ADD60C,0.01000*%
%ADD61C,0.00787*%
D10*
X179213Y150315D02*
D03*
X202441D02*
D03*
D11*
X183953Y119567D02*
D03*
Y115827D02*
D03*
Y112087D02*
D03*
X193402D02*
D03*
Y119567D02*
D03*
D12*
X209764Y89567D02*
D03*
Y102165D02*
D03*
D13*
X100394Y118567D02*
D03*
Y126047D02*
D03*
Y111433D02*
D03*
Y103953D02*
D03*
X89724Y17150D02*
D03*
Y9669D02*
D03*
X52480Y73724D02*
D03*
Y66244D02*
D03*
X116890Y54945D02*
D03*
Y47465D02*
D03*
X115827Y93488D02*
D03*
Y86008D02*
D03*
X175827Y49189D02*
D03*
Y56669D02*
D03*
X196181Y84858D02*
D03*
Y92339D02*
D03*
X107795Y10764D02*
D03*
Y18244D02*
D03*
X113307Y10606D02*
D03*
Y18087D02*
D03*
X125984Y50567D02*
D03*
Y43087D02*
D03*
X132756Y50535D02*
D03*
Y43055D02*
D03*
X202323Y65850D02*
D03*
Y58370D02*
D03*
X208228Y58402D02*
D03*
Y65882D02*
D03*
X214488Y58402D02*
D03*
Y65882D02*
D03*
X41102Y110417D02*
D03*
Y102937D02*
D03*
X47283Y102929D02*
D03*
Y110409D02*
D03*
X7913Y137811D02*
D03*
Y145291D02*
D03*
X13386Y137811D02*
D03*
Y145291D02*
D03*
X35394Y136433D02*
D03*
Y143913D02*
D03*
X35472Y149307D02*
D03*
Y156787D02*
D03*
X41260Y149386D02*
D03*
Y156866D02*
D03*
X47401Y149386D02*
D03*
Y156866D02*
D03*
X41260Y136276D02*
D03*
Y143756D02*
D03*
X47401Y136276D02*
D03*
Y143756D02*
D03*
X6968Y122858D02*
D03*
Y115378D02*
D03*
X13465Y122780D02*
D03*
Y115299D02*
D03*
X6968Y109787D02*
D03*
Y102307D02*
D03*
X13465Y109787D02*
D03*
Y102307D02*
D03*
X19685Y109709D02*
D03*
Y102228D02*
D03*
X93858Y105299D02*
D03*
Y97819D02*
D03*
X60433Y135221D02*
D03*
Y127740D02*
D03*
X93622Y129236D02*
D03*
Y121756D02*
D03*
D14*
X58031Y113209D02*
D03*
Y110650D02*
D03*
Y108090D02*
D03*
Y105532D02*
D03*
Y102972D02*
D03*
Y100413D02*
D03*
Y97854D02*
D03*
Y95295D02*
D03*
X85197Y113209D02*
D03*
Y110650D02*
D03*
Y108090D02*
D03*
Y105532D02*
D03*
Y102972D02*
D03*
Y100413D02*
D03*
Y97854D02*
D03*
Y95295D02*
D03*
D15*
X97378Y86142D02*
D03*
X104858D02*
D03*
X83244D02*
D03*
X90724D02*
D03*
X155961Y60158D02*
D03*
X163441D02*
D03*
X147701Y125276D02*
D03*
X140220D02*
D03*
X181197Y92323D02*
D03*
X188677D02*
D03*
X181197Y98071D02*
D03*
X188677D02*
D03*
X198284Y31850D02*
D03*
X205764D02*
D03*
X34157Y116102D02*
D03*
X26677D02*
D03*
X34197Y110197D02*
D03*
X26717D02*
D03*
X34197Y104173D02*
D03*
X26717D02*
D03*
D16*
X61925Y19705D02*
D03*
X76925D02*
D03*
X61925Y9705D02*
D03*
X76925D02*
D03*
D17*
X61984Y38012D02*
D03*
Y41161D02*
D03*
Y44311D02*
D03*
Y47461D02*
D03*
Y50610D02*
D03*
Y53760D02*
D03*
Y56910D02*
D03*
Y60059D02*
D03*
Y63209D02*
D03*
Y66358D02*
D03*
Y69508D02*
D03*
X106866D02*
D03*
Y66358D02*
D03*
Y63209D02*
D03*
Y60059D02*
D03*
Y56910D02*
D03*
Y53760D02*
D03*
Y50610D02*
D03*
Y47461D02*
D03*
Y44311D02*
D03*
Y41161D02*
D03*
Y38012D02*
D03*
D18*
X68677Y76201D02*
D03*
X71827D02*
D03*
X74976D02*
D03*
X78126D02*
D03*
X81276D02*
D03*
X84425D02*
D03*
X87575D02*
D03*
X90724D02*
D03*
X93874D02*
D03*
X97024D02*
D03*
X100173D02*
D03*
Y31319D02*
D03*
X97024D02*
D03*
X93874D02*
D03*
X90724D02*
D03*
X87575D02*
D03*
X84425D02*
D03*
X81276D02*
D03*
X78126D02*
D03*
X74976D02*
D03*
X71827D02*
D03*
X68677D02*
D03*
D19*
X165433Y114469D02*
D03*
X162284D02*
D03*
X159134D02*
D03*
X155984D02*
D03*
X152835D02*
D03*
X149685D02*
D03*
X146535D02*
D03*
X143386D02*
D03*
X140236D02*
D03*
X137087D02*
D03*
X133937D02*
D03*
Y70177D02*
D03*
X137087D02*
D03*
X140236D02*
D03*
X143386D02*
D03*
X146535D02*
D03*
X149685D02*
D03*
X152835D02*
D03*
X155984D02*
D03*
X159134D02*
D03*
X162284D02*
D03*
X165433D02*
D03*
D20*
X127539Y108071D02*
D03*
Y104921D02*
D03*
Y101772D02*
D03*
Y98622D02*
D03*
Y95472D02*
D03*
Y92323D02*
D03*
Y89173D02*
D03*
Y86024D02*
D03*
Y82874D02*
D03*
Y79724D02*
D03*
Y76575D02*
D03*
X171831D02*
D03*
Y79724D02*
D03*
Y82874D02*
D03*
Y86024D02*
D03*
Y89173D02*
D03*
Y92323D02*
D03*
Y95472D02*
D03*
Y98622D02*
D03*
Y101772D02*
D03*
Y104921D02*
D03*
Y108071D02*
D03*
D21*
X145118Y44173D02*
D03*
X141378Y52441D02*
D03*
X148858D02*
D03*
D22*
X129370Y8779D02*
D03*
X164016D02*
D03*
D23*
X129370Y27480D02*
D03*
X164016D02*
D03*
D24*
X140394D02*
D03*
X143543D02*
D03*
X146693D02*
D03*
X149843D02*
D03*
X152992D02*
D03*
D25*
X205720Y19350D02*
D03*
X178161D02*
D03*
D26*
X202323Y51142D02*
D03*
X208228D02*
D03*
X202323Y39331D02*
D03*
X208228D02*
D03*
D27*
X20453Y124626D02*
D03*
X23012D02*
D03*
X25571D02*
D03*
X28130D02*
D03*
X20453Y142933D02*
D03*
X23012D02*
D03*
X25571D02*
D03*
X28130D02*
D03*
D28*
X85945Y122402D02*
D03*
Y124370D02*
D03*
Y126339D02*
D03*
Y128307D02*
D03*
Y130276D02*
D03*
X68622Y122402D02*
D03*
Y124370D02*
D03*
Y126339D02*
D03*
Y128307D02*
D03*
Y130276D02*
D03*
M02*
